<?xml version="1.0" encoding="UTF-8" standalone="no"?>
<!-- Created with Inkscape (http://www.inkscape.org/) -->

<svg
   width="596.6217mm"
   height="210.343mm"
   viewBox="0 0 596.62171 210.343"
   version="1.1"
   id="svg1"
   xml:space="preserve"
   inkscape:version="1.4.2 (ebf0e940d0, 2025-05-08)"
   sodipodi:docname="logo.svg"
   xmlns:inkscape="http://www.inkscape.org/namespaces/inkscape"
   xmlns:sodipodi="http://sodipodi.sourceforge.net/DTD/sodipodi-0.dtd"
   xmlns="http://www.w3.org/2000/svg"
   xmlns:svg="http://www.w3.org/2000/svg"><sodipodi:namedview
     id="namedview1"
     pagecolor="#ffffff"
     bordercolor="#666666"
     borderopacity="1.0"
     inkscape:showpageshadow="2"
     inkscape:pageopacity="0.0"
     inkscape:pagecheckerboard="0"
     inkscape:deskcolor="#d1d1d1"
     inkscape:document-units="mm"
     inkscape:zoom="0.12111777"
     inkscape:cx="1597.6186"
     inkscape:cy="-1085.7201"
     inkscape:window-width="1702"
     inkscape:window-height="916"
     inkscape:window-x="0"
     inkscape:window-y="0"
     inkscape:window-maximized="0"
     inkscape:current-layer="svg1" /><defs
     id="defs1" /><g
     inkscape:label="Layer 1"
     inkscape:groupmode="layer"
     id="layer1"
     transform="translate(219.84424,-0.17596607)" /><rect
     x="0"
     y="0"
     width="2254.9563"
     height="795"
     style="fill:#ffffff;stroke:none"
     id="rect38"
     transform="scale(0.26458239)" /><g
     style="fill:#000000;stroke:none"
     id="g38"
     transform="matrix(0.264583,0,0,0.264583,386.27825,0)"><path
       d="m 673.5,735 h -57 c -0.828,0 -1.5,-0.672 -1.5,-1.5 v -12 c 0,-0.828 0.672,-1.5 1.5,-1.5 h 12 c 0.828,0 1.5,-0.672 1.5,-1.5 v -12 c 0,-0.828 0.672,-1.5 1.5,-1.5 H 660 v 13.5 c 0,0.828 0.672,1.5 1.5,1.5 H 675 v 13.5 c 0,0.828 -0.672,1.5 -1.5,1.5 z m -75,0 h -42 c -0.828,0 -1.5,-0.672 -1.5,-1.5 v -42 c 0,-0.828 0.672,-1.5 1.5,-1.5 H 570 v 28.5 c 0,0.828 0.672,1.5 1.5,1.5 h 12 c 0.828,0 1.5,-0.672 1.5,-1.5 v -12 c 0,-0.828 0.672,-1.5 1.5,-1.5 H 600 v 28.5 c 0,0.828 -0.672,1.5 -1.5,1.5 z m -75,0 h -12 c -0.828,0 -1.5,-0.672 -1.5,-1.5 v -12 c 0,-0.828 -0.672,-1.5 -1.5,-1.5 h -12 c -0.828,0 -1.5,0.672 -1.5,1.5 v 12 c 0,0.828 -0.672,1.5 -1.5,1.5 h -12 c -0.828,0 -1.5,-0.672 -1.5,-1.5 v -27 c 0,-0.828 0.672,-1.5 1.5,-1.5 h 12 c 0.828,0 1.5,-0.672 1.5,-1.5 V 690 h 15 v 13.5 c 0,0.828 0.672,1.5 1.5,1.5 h 27 c 0.828,0 1.5,0.672 1.5,1.5 v 12 c 0,0.828 -0.672,1.5 -1.5,1.5 h -12 c -0.828,0 -1.5,0.672 -1.5,1.5 v 12 c 0,0.828 -0.672,1.5 -1.5,1.5 z m -90,0 h -42 c -0.828,0 -1.5,-0.672 -1.5,-1.5 v -12 c 0,-0.828 -0.672,-1.5 -1.5,-1.5 h -12 c -0.828,0 -1.5,-0.672 -1.5,-1.5 v -27 c 0,-0.828 -0.672,-1.5 -1.5,-1.5 H 345 v -13.5 c 0,-0.828 0.672,-1.5 1.5,-1.5 h 12 c 0.828,0 1.5,-0.672 1.5,-1.5 v -42 c 0,-0.828 -0.672,-1.5 -1.5,-1.5 h -27 c -0.828,0 -1.5,0.672 -1.5,1.5 v 12 c 0,0.828 0.672,1.5 1.5,1.5 h 12 c 0.828,0 1.5,0.672 1.5,1.5 v 12 c 0,0.828 -0.672,1.5 -1.5,1.5 H 300 v -28.5 c 0,-0.828 0.672,-1.5 1.5,-1.5 h 12 c 0.828,0 1.5,-0.672 1.5,-1.5 V 615 h 28.5 c 0.828,0 1.5,-0.672 1.5,-1.5 v -12 c 0,-0.828 -0.672,-1.5 -1.5,-1.5 H 315 v -30 h 30 v 13.5 c 0,0.828 0.672,1.5 1.5,1.5 h 12 c 0.828,0 1.5,0.672 1.5,1.5 v 12 c 0,0.828 0.672,1.5 1.5,1.5 h 57 c 0.828,0 1.5,-0.672 1.5,-1.5 v -12 c 0,-0.828 0.672,-1.5 1.5,-1.5 h 12 c 0.828,0 1.5,0.672 1.5,1.5 v 72 c 0,0.828 0.672,1.5 1.5,1.5 H 450 v 28.5 c 0,0.828 -0.672,1.5 -1.5,1.5 h -12 c -0.828,0 -1.5,0.672 -1.5,1.5 v 12 c 0,0.828 -0.672,1.5 -1.5,1.5 h -12 c -0.828,0 -1.5,-0.672 -1.5,-1.5 v -12 c 0,-0.828 -0.672,-1.5 -1.5,-1.5 h -27 c -0.828,0 -1.5,0.672 -1.5,1.5 v 12 c 0,0.828 0.672,1.5 1.5,1.5 h 12 c 0.828,0 1.5,0.672 1.5,1.5 v 12 c 0,0.828 0.672,1.5 1.5,1.5 h 27 c 0.828,0 1.5,0.672 1.5,1.5 v 12 c 0,0.828 -0.672,1.5 -1.5,1.5 z m -120,0 h -57 c -0.828,0 -1.5,-0.672 -1.5,-1.5 V 720 h 13.5 c 0.828,0 1.5,-0.672 1.5,-1.5 v -27 c 0,-0.828 -0.672,-1.5 -1.5,-1.5 h -12 c -0.828,0 -1.5,0.672 -1.5,1.5 V 720 h -13.5 c -0.828,0 -1.5,-0.672 -1.5,-1.5 v -12 c 0,-0.828 -0.672,-1.5 -1.5,-1.5 h -27 c -0.828,0 -1.5,-0.672 -1.5,-1.5 v -12 c 0,-0.828 -0.672,-1.5 -1.5,-1.5 h -27 c -0.828,0 -1.5,-0.672 -1.5,-1.5 v -72 c 0,-0.828 0.672,-1.5 1.5,-1.5 h 12 c 0.828,0 1.5,-0.672 1.5,-1.5 v -27 c 0,-0.828 -0.672,-1.5 -1.5,-1.5 H 180 v -15 h 28.5 c 0.828,0 1.5,0.672 1.5,1.5 v 12 c 0,0.828 0.672,1.5 1.5,1.5 H 240 v 13.5 c 0,0.828 -0.672,1.5 -1.5,1.5 h -12 c -0.828,0 -1.5,0.672 -1.5,1.5 V 615 h -13.5 c -0.828,0 -1.5,0.672 -1.5,1.5 V 630 h -13.5 c -0.828,0 -1.5,0.672 -1.5,1.5 v 12 c 0,0.828 0.672,1.5 1.5,1.5 h 12 c 0.828,0 1.5,-0.672 1.5,-1.5 V 630 h 13.5 c 0.828,0 1.5,-0.672 1.5,-1.5 V 615 h 28.5 c 0.828,0 1.5,-0.672 1.5,-1.5 v -12 c 0,-0.828 0.672,-1.5 1.5,-1.5 H 270 v 13.5 c 0,0.828 0.672,1.5 1.5,1.5 h 12 c 0.828,0 1.5,0.672 1.5,1.5 v 12 c 0,0.828 -0.672,1.5 -1.5,1.5 h -12 c -0.828,0 -1.5,0.672 -1.5,1.5 v 12 c 0,0.828 0.672,1.5 1.5,1.5 h 12 c 0.828,0 1.5,0.672 1.5,1.5 v 12 c 0,0.828 0.672,1.5 1.5,1.5 H 300 v 15 h -13.5 c -0.828,0 -1.5,0.672 -1.5,1.5 v 42 c 0,0.828 0.672,1.5 1.5,1.5 h 27 c 0.828,0 1.5,0.672 1.5,1.5 v 12 c 0,0.828 -0.672,1.5 -1.5,1.5 z m -90,0 h -12 c -0.828,0 -1.5,-0.672 -1.5,-1.5 v -12 c 0,-0.828 0.672,-1.5 1.5,-1.5 h 12 c 0.828,0 1.5,0.672 1.5,1.5 v 12 c 0,0.828 -0.672,1.5 -1.5,1.5 z m -30,0 h -12 c -0.828,0 -1.5,-0.672 -1.5,-1.5 v -12 c 0,-0.828 0.672,-1.5 1.5,-1.5 h 12 c 0.828,0 1.5,0.672 1.5,1.5 v 12 c 0,0.828 -0.672,1.5 -1.5,1.5 z m -30,0 h -102 c -0.8284,0 -1.5,-0.672 -1.5,-1.5 v -102 c 0,-0.828 0.6716,-1.5 1.5,-1.5 h 102 c 0.828,0 1.5,0.672 1.5,1.5 v 102 c 0,0.828 -0.672,1.5 -1.5,1.5 z m 570,-15 H 675 v -15 h 13.5 c 0.828,0 1.5,-0.672 1.5,-1.5 v -12 c 0,-0.828 0.672,-1.5 1.5,-1.5 H 705 v 13.5 c 0,0.828 0.672,1.5 1.5,1.5 h 12 c 0.828,0 1.5,-0.672 1.5,-1.5 v -12 c 0,-0.828 -0.672,-1.5 -1.5,-1.5 H 705 v -30 h 13.5 c 0.828,0 1.5,0.672 1.5,1.5 v 12 c 0,0.828 0.672,1.5 1.5,1.5 h 12 c 0.828,0 1.5,0.672 1.5,1.5 v 42 c 0,0.828 -0.672,1.5 -1.5,1.5 z m -270,0 h -12 c -0.828,0 -1.5,-0.672 -1.5,-1.5 v -12 c 0,-0.828 0.672,-1.5 1.5,-1.5 h 12 c 0.828,0 1.5,0.672 1.5,1.5 v 12 c 0,0.828 -0.672,1.5 -1.5,1.5 z M 150,718.5 v -72 c 0,-0.828 -0.672,-1.5 -1.5,-1.5 h -72 c -0.8284,0 -1.5,0.672 -1.5,1.5 v 72 c 0,0.828 0.6716,1.5 1.5,1.5 h 72 c 0.828,0 1.5,-0.672 1.5,-1.5 z M 673.5,705 H 660 v -13.5 c 0,-0.828 0.672,-1.5 1.5,-1.5 h 12 c 0.828,0 1.5,0.672 1.5,1.5 V 705 Z m -60,0 H 600 v -13.5 c 0,-0.828 0.672,-1.5 1.5,-1.5 H 615 v 13.5 c 0,0.828 -0.672,1.5 -1.5,1.5 z m -270,0 h -27 c -0.828,0 -1.5,-0.672 -1.5,-1.5 v -12 c 0,-0.828 -0.672,-1.5 -1.5,-1.5 h -12 c -0.828,0 -1.5,-0.672 -1.5,-1.5 V 675 h 28.5 c 0.828,0 1.5,0.672 1.5,1.5 v 12 c 0,0.828 0.672,1.5 1.5,1.5 H 345 v 13.5 c 0,0.828 -0.672,1.5 -1.5,1.5 z m -210,0 h -42 c -0.8284,0 -1.5,-0.672 -1.5,-1.5 v -42 c 0,-0.828 0.6716,-1.5 1.5,-1.5 h 42 c 0.828,0 1.5,0.672 1.5,1.5 v 42 c 0,0.828 -0.672,1.5 -1.5,1.5 z m 510,-15 H 615 v -13.5 c 0,-0.828 -0.672,-1.5 -1.5,-1.5 h -12 c -0.828,0 -1.5,-0.672 -1.5,-1.5 v -12 c 0,-0.828 -0.672,-1.5 -1.5,-1.5 h -12 c -0.828,0 -1.5,0.672 -1.5,1.5 v 27 c 0,0.828 -0.672,1.5 -1.5,1.5 H 570 v -13.5 c 0,-0.828 -0.672,-1.5 -1.5,-1.5 h -27 c -0.828,0 -1.5,0.672 -1.5,1.5 v 12 c 0,0.828 -0.672,1.5 -1.5,1.5 H 510 v -28.5 c 0,-0.828 -0.672,-1.5 -1.5,-1.5 h -12 c -0.828,0 -1.5,-0.672 -1.5,-1.5 v -12 c 0,-0.828 0.672,-1.5 1.5,-1.5 h 27 c 0.828,0 1.5,0.672 1.5,1.5 v 12 c 0,0.828 0.672,1.5 1.5,1.5 h 42 c 0.828,0 1.5,-0.672 1.5,-1.5 V 645 h 13.5 c 0.828,0 1.5,-0.672 1.5,-1.5 v -27 c 0,-0.828 -0.672,-1.5 -1.5,-1.5 h -12 c -0.828,0 -1.5,-0.672 -1.5,-1.5 v -12 c 0,-0.828 -0.672,-1.5 -1.5,-1.5 h -12 c -0.828,0 -1.5,0.672 -1.5,1.5 V 630 h -13.5 c -0.828,0 -1.5,-0.672 -1.5,-1.5 v -12 c 0,-0.828 -0.672,-1.5 -1.5,-1.5 H 525 v -13.5 c 0,-0.828 -0.672,-1.5 -1.5,-1.5 H 495 v -13.5 c 0,-0.828 -0.672,-1.5 -1.5,-1.5 h -12 c -0.828,0 -1.5,-0.672 -1.5,-1.5 v -57 c 0,-0.828 0.672,-1.5 1.5,-1.5 h 12 c 0.828,0 1.5,0.672 1.5,1.5 v 12 c 0,0.828 0.672,1.5 1.5,1.5 h 12 c 0.828,0 1.5,-0.672 1.5,-1.5 v -12 c 0,-0.828 0.672,-1.5 1.5,-1.5 h 27 c 0.828,0 1.5,0.672 1.5,1.5 v 12 c 0,0.828 -0.672,1.5 -1.5,1.5 h -12 c -0.828,0 -1.5,0.672 -1.5,1.5 v 12 c 0,0.828 0.672,1.5 1.5,1.5 h 42 c 0.828,0 1.5,-0.672 1.5,-1.5 v -12 c 0,-0.828 -0.672,-1.5 -1.5,-1.5 h -12 c -0.828,0 -1.5,-0.672 -1.5,-1.5 v -12 c 0,-0.828 0.672,-1.5 1.5,-1.5 h 42 c 0.828,0 1.5,0.672 1.5,1.5 v 12 c 0,0.828 -0.672,1.5 -1.5,1.5 h -12 c -0.828,0 -1.5,0.672 -1.5,1.5 v 12 c 0,0.828 0.672,1.5 1.5,1.5 h 12 c 0.828,0 1.5,0.672 1.5,1.5 V 570 h -13.5 c -0.828,0 -1.5,0.672 -1.5,1.5 v 27 c 0,0.828 0.672,1.5 1.5,1.5 h 12 c 0.828,0 1.5,-0.672 1.5,-1.5 V 570 h 58.5 c 0.828,0 1.5,-0.672 1.5,-1.5 v -12 c 0,-0.828 0.672,-1.5 1.5,-1.5 H 705 v 13.5 c 0,0.828 0.672,1.5 1.5,1.5 h 27 c 0.828,0 1.5,0.672 1.5,1.5 v 12 c 0,0.828 -0.672,1.5 -1.5,1.5 h -27 c -0.828,0 -1.5,0.672 -1.5,1.5 v 12 c 0,0.828 -0.672,1.5 -1.5,1.5 h -27 c -0.828,0 -1.5,0.672 -1.5,1.5 v 12 c 0,0.828 0.672,1.5 1.5,1.5 h 27 c 0.828,0 1.5,0.672 1.5,1.5 V 660 h -28.5 c -0.828,0 -1.5,0.672 -1.5,1.5 v 12 c 0,0.828 -0.672,1.5 -1.5,1.5 h -27 c -0.828,0 -1.5,0.672 -1.5,1.5 v 12 c 0,0.828 -0.672,1.5 -1.5,1.5 z m -150,0 h -27 c -0.828,0 -1.5,-0.672 -1.5,-1.5 v -12 c 0,-0.828 0.672,-1.5 1.5,-1.5 h 27 c 0.828,0 1.5,0.672 1.5,1.5 V 690 Z M 240,688.5 V 675 h 28.5 c 0.828,0 1.5,-0.672 1.5,-1.5 v -12 c 0,-0.828 -0.672,-1.5 -1.5,-1.5 h -12 c -0.828,0 -1.5,-0.672 -1.5,-1.5 v -12 c 0,-0.828 -0.672,-1.5 -1.5,-1.5 h -27 c -0.828,0 -1.5,0.672 -1.5,1.5 v 12 c 0,0.828 0.672,1.5 1.5,1.5 h 12 c 0.828,0 1.5,0.672 1.5,1.5 V 675 h -13.5 c -0.828,0 -1.5,0.672 -1.5,1.5 v 12 c 0,0.828 0.672,1.5 1.5,1.5 h 12 c 0.828,0 1.5,-0.672 1.5,-1.5 z m 420,-30 v -42 c 0,-0.828 -0.672,-1.5 -1.5,-1.5 h -42 c -0.828,0 -1.5,0.672 -1.5,1.5 v 42 c 0,0.828 0.672,1.5 1.5,1.5 h 42 c 0.828,0 1.5,-0.672 1.5,-1.5 z M 463.5,660 H 450 v -58.5 c 0,-0.828 0.672,-1.5 1.5,-1.5 h 12 c 0.828,0 1.5,0.672 1.5,1.5 v 57 c 0,0.828 -0.672,1.5 -1.5,1.5 z M 420,658.5 v -42 c 0,-0.828 -0.672,-1.5 -1.5,-1.5 h -42 c -0.828,0 -1.5,0.672 -1.5,1.5 v 42 c 0,0.828 0.672,1.5 1.5,1.5 h 42 c 0.828,0 1.5,-0.672 1.5,-1.5 z m 270,-15 v -12 c 0,-0.828 -0.672,-1.5 -1.5,-1.5 h -12 c -0.828,0 -1.5,0.672 -1.5,1.5 v 12 c 0,0.828 0.672,1.5 1.5,1.5 h 12 c 0.828,0 1.5,-0.672 1.5,-1.5 z m -46.5,1.5 h -12 c -0.828,0 -1.5,-0.672 -1.5,-1.5 v -12 c 0,-0.828 0.672,-1.5 1.5,-1.5 h 12 c 0.828,0 1.5,0.672 1.5,1.5 v 12 c 0,0.828 -0.672,1.5 -1.5,1.5 z m -75,0 h -12 c -0.828,0 -1.5,-0.672 -1.5,-1.5 V 630 h 13.5 c 0.828,0 1.5,0.672 1.5,1.5 V 645 Z m -165,0 h -12 c -0.828,0 -1.5,-0.672 -1.5,-1.5 v -12 c 0,-0.828 0.672,-1.5 1.5,-1.5 h 12 c 0.828,0 1.5,0.672 1.5,1.5 v 12 c 0,0.828 -0.672,1.5 -1.5,1.5 z m 120,-15 h -12 c -0.828,0 -1.5,-0.672 -1.5,-1.5 v -12 c 0,-0.828 0.672,-1.5 1.5,-1.5 H 525 v 13.5 c 0,0.828 -0.672,1.5 -1.5,1.5 z m -30,0 h -12 c -0.828,0 -1.5,-0.672 -1.5,-1.5 v -27 c 0,-0.828 0.672,-1.5 1.5,-1.5 H 495 v 28.5 c 0,0.828 -0.672,1.5 -1.5,1.5 z m 240,-15 h -12 c -0.828,0 -1.5,-0.672 -1.5,-1.5 v -12 c 0,-0.828 0.672,-1.5 1.5,-1.5 h 12 c 0.828,0 1.5,0.672 1.5,1.5 v 12 c 0,0.828 -0.672,1.5 -1.5,1.5 z m -420,0 h -12 c -0.828,0 -1.5,-0.672 -1.5,-1.5 v -12 c 0,-0.828 0.672,-1.5 1.5,-1.5 H 315 v 15 z m -150,0 h -12 c -0.828,0 -1.5,-0.672 -1.5,-1.5 v -12 c 0,-0.828 0.672,-1.5 1.5,-1.5 H 165 v 13.5 c 0,0.828 -0.672,1.5 -1.5,1.5 z m -30,0 h -27 c -0.828,0 -1.5,-0.672 -1.5,-1.5 v -12 c 0,-0.828 -0.672,-1.5 -1.5,-1.5 H 75 v -13.5 c 0,-0.828 0.6716,-1.5 1.5,-1.5 h 42 c 0.828,0 1.5,-0.672 1.5,-1.5 V 555 h 15 v 58.5 c 0,0.828 -0.672,1.5 -1.5,1.5 z m -60,0 h -12 c -0.8284,0 -1.5,-0.672 -1.5,-1.5 v -12 c 0,-0.828 0.6716,-1.5 1.5,-1.5 H 75 v 13.5 c 0,0.828 -0.6716,1.5 -1.5,1.5 z M 660,598.5 v -12 c 0,-0.828 -0.672,-1.5 -1.5,-1.5 h -12 c -0.828,0 -1.5,0.672 -1.5,1.5 v 12 c 0,0.828 0.672,1.5 1.5,1.5 h 12 c 0.828,0 1.5,-0.672 1.5,-1.5 z m -30,0 v -12 c 0,-0.828 -0.672,-1.5 -1.5,-1.5 h -12 c -0.828,0 -1.5,0.672 -1.5,1.5 v 12 c 0,0.828 0.672,1.5 1.5,1.5 h 12 c 0.828,0 1.5,-0.672 1.5,-1.5 z M 283.5,600 H 270 v -15 h 13.5 c 0.828,0 1.5,0.672 1.5,1.5 v 12 c 0,0.828 -0.672,1.5 -1.5,1.5 z m -105,0 H 165 v -15 h 15 v 13.5 c 0,0.828 -0.672,1.5 -1.5,1.5 z M 690,583.5 v -12 c 0,-0.828 -0.672,-1.5 -1.5,-1.5 h -12 c -0.828,0 -1.5,0.672 -1.5,1.5 v 12 c 0,0.828 0.672,1.5 1.5,1.5 h 12 c 0.828,0 1.5,-0.672 1.5,-1.5 z m -135,0 v -12 c 0,-0.828 -0.672,-1.5 -1.5,-1.5 h -12 c -0.828,0 -1.5,0.672 -1.5,1.5 v 12 c 0,0.828 0.672,1.5 1.5,1.5 h 12 c 0.828,0 1.5,-0.672 1.5,-1.5 z m -30,0 v -12 c 0,-0.828 -0.672,-1.5 -1.5,-1.5 H 510 v -13.5 c 0,-0.828 -0.672,-1.5 -1.5,-1.5 h -12 c -0.828,0 -1.5,0.672 -1.5,1.5 v 12 c 0,0.828 0.672,1.5 1.5,1.5 H 510 v 13.5 c 0,0.828 0.672,1.5 1.5,1.5 h 12 c 0.828,0 1.5,-0.672 1.5,-1.5 z M 403.5,585 h -12 c -0.828,0 -1.5,-0.672 -1.5,-1.5 V 570 h 15 v 13.5 c 0,0.828 -0.672,1.5 -1.5,1.5 z m -135,0 H 240 v -15 h 13.5 c 0.828,0 1.5,-0.672 1.5,-1.5 V 555 h 30 v 13.5 c 0,0.828 -0.672,1.5 -1.5,1.5 h -12 c -0.828,0 -1.5,0.672 -1.5,1.5 V 585 Z m -105,0 h -12 c -0.828,0 -1.5,-0.672 -1.5,-1.5 v -12 c 0,-0.828 0.672,-1.5 1.5,-1.5 H 165 v 15 z m 300,-15 H 405 v -13.5 c 0,-0.828 -0.672,-1.5 -1.5,-1.5 H 390 v -15 h 13.5 c 0.828,0 1.5,-0.672 1.5,-1.5 v -12 c 0,-0.828 -0.672,-1.5 -1.5,-1.5 H 390 v -13.5 c 0,-0.828 0.672,-1.5 1.5,-1.5 H 420 v 13.5 c 0,0.828 0.672,1.5 1.5,1.5 h 12 c 0.828,0 1.5,0.672 1.5,1.5 v 27 c 0,0.828 0.672,1.5 1.5,1.5 h 12 c 0.828,0 1.5,-0.672 1.5,-1.5 v -12 c 0,-0.828 0.672,-1.5 1.5,-1.5 h 12 c 0.828,0 1.5,0.672 1.5,1.5 v 27 c 0,0.828 -0.672,1.5 -1.5,1.5 z m -75,0 H 345 v -13.5 c 0,-0.828 0.672,-1.5 1.5,-1.5 H 390 v 15 z m -75,0 h -12 c -0.828,0 -1.5,-0.672 -1.5,-1.5 V 555 h 13.5 c 0.828,0 1.5,0.672 1.5,1.5 V 570 Z m -75,0 h -12 c -0.828,0 -1.5,-0.672 -1.5,-1.5 v -42 c 0,-0.828 -0.672,-1.5 -1.5,-1.5 h -12 c -0.828,0 -1.5,0.672 -1.5,1.5 v 12 c 0,0.828 -0.672,1.5 -1.5,1.5 H 195 v -28.5 c 0,-0.828 -0.672,-1.5 -1.5,-1.5 H 165 v -13.5 c 0,-0.828 -0.672,-1.5 -1.5,-1.5 h -42 c -0.828,0 -1.5,-0.672 -1.5,-1.5 V 450 h 43.5 c 0.828,0 1.5,-0.672 1.5,-1.5 v -12 c 0,-0.828 -0.672,-1.5 -1.5,-1.5 H 120 v -13.5 c 0,-0.828 -0.672,-1.5 -1.5,-1.5 h -12 c -0.828,0 -1.5,0.672 -1.5,1.5 V 435 H 76.5 c -0.8284,0 -1.5,-0.672 -1.5,-1.5 v -27 c 0,-0.828 0.6716,-1.5 1.5,-1.5 h 12 c 0.8284,0 1.5,-0.672 1.5,-1.5 V 390 h 15 v 13.5 c 0,0.828 0.672,1.5 1.5,1.5 h 12 c 0.828,0 1.5,-0.672 1.5,-1.5 v -12 c 0,-0.828 -0.672,-1.5 -1.5,-1.5 H 105 v -15 h 13.5 c 0.828,0 1.5,-0.672 1.5,-1.5 v -27 c 0,-0.828 0.672,-1.5 1.5,-1.5 H 135 v 13.5 c 0,0.828 0.672,1.5 1.5,1.5 h 42 c 0.828,0 1.5,-0.672 1.5,-1.5 V 345 h 13.5 c 0.828,0 1.5,-0.672 1.5,-1.5 V 330 h 15 v 43.5 c 0,0.828 -0.672,1.5 -1.5,1.5 h -12 c -0.828,0 -1.5,0.672 -1.5,1.5 V 435 h -13.5 c -0.828,0 -1.5,0.672 -1.5,1.5 v 57 c 0,0.828 0.672,1.5 1.5,1.5 h 12 c 0.828,0 1.5,-0.672 1.5,-1.5 v -12 c 0,-0.828 0.672,-1.5 1.5,-1.5 H 210 v 13.5 c 0,0.828 0.672,1.5 1.5,1.5 h 12 c 0.828,0 1.5,0.672 1.5,1.5 v 12 c 0,0.828 0.672,1.5 1.5,1.5 h 12 c 0.828,0 1.5,0.672 1.5,1.5 v 12 c 0,0.828 0.672,1.5 1.5,1.5 h 12 c 0.828,0 1.5,-0.672 1.5,-1.5 V 495 h 15 v 28.5 c 0,0.828 0.672,1.5 1.5,1.5 H 285 v 15 h -28.5 c -0.828,0 -1.5,0.672 -1.5,1.5 V 555 h -13.5 c -0.828,0 -1.5,0.672 -1.5,1.5 V 570 Z m -60,0 H 165 v -13.5 c 0,-0.828 -0.672,-1.5 -1.5,-1.5 H 135 v -13.5 c 0,-0.828 0.672,-1.5 1.5,-1.5 H 195 v 13.5 c 0,0.828 -0.672,1.5 -1.5,1.5 h -12 c -0.828,0 -1.5,0.672 -1.5,1.5 V 570 Z m -75,0 h -42 c -0.8284,0 -1.5,-0.672 -1.5,-1.5 v -12 c 0,-0.828 0.6716,-1.5 1.5,-1.5 h 27 c 0.8284,0 1.5,-0.672 1.5,-1.5 v -12 c 0,-0.828 0.6716,-1.5 1.5,-1.5 h 12 c 0.828,0 1.5,-0.672 1.5,-1.5 v -12 c 0,-0.828 0.672,-1.5 1.5,-1.5 H 120 v 30 h -13.5 c -0.828,0 -1.5,0.672 -1.5,1.5 v 12 c 0,0.828 -0.672,1.5 -1.5,1.5 z m 615,-15 H 705 v -15 h 15 v 13.5 c 0,0.828 -0.672,1.5 -1.5,1.5 z m -75,0 h -12 c -0.828,0 -1.5,-0.672 -1.5,-1.5 V 540 h 13.5 c 0.828,0 1.5,0.672 1.5,1.5 v 12 c 0,0.828 -0.672,1.5 -1.5,1.5 z m -345,0 H 285 v -15 h 15 v 15 z m 435,-15 H 720 v -28.5 c 0,-0.828 -0.672,-1.5 -1.5,-1.5 H 705 v -13.5 c 0,-0.828 0.672,-1.5 1.5,-1.5 h 27 c 0.828,0 1.5,0.672 1.5,1.5 v 42 c 0,0.828 -0.672,1.5 -1.5,1.5 z m -30,0 h -27 c -0.828,0 -1.5,-0.672 -1.5,-1.5 v -12 c 0,-0.828 -0.672,-1.5 -1.5,-1.5 h -42 c -0.828,0 -1.5,0.672 -1.5,1.5 V 540 h -13.5 c -0.828,0 -1.5,-0.672 -1.5,-1.5 v -27 c 0,-0.828 0.672,-1.5 1.5,-1.5 h 12 c 0.828,0 1.5,-0.672 1.5,-1.5 v -12 c 0,-0.828 0.672,-1.5 1.5,-1.5 h 27 c 0.828,0 1.5,-0.672 1.5,-1.5 V 480 h 30 v 13.5 c 0,0.828 -0.672,1.5 -1.5,1.5 h -12 c -0.828,0 -1.5,0.672 -1.5,1.5 v 12 c 0,0.828 0.672,1.5 1.5,1.5 H 705 v 30 z m -315,0 h -42 c -0.828,0 -1.5,-0.672 -1.5,-1.5 v -12 c 0,-0.828 -0.672,-1.5 -1.5,-1.5 H 330 v -13.5 c 0,-0.828 -0.672,-1.5 -1.5,-1.5 h -12 c -0.828,0 -1.5,-0.672 -1.5,-1.5 V 495 h 13.5 c 0.828,0 1.5,-0.672 1.5,-1.5 V 480 h 13.5 c 0.828,0 1.5,0.672 1.5,1.5 v 12 c 0,0.828 0.672,1.5 1.5,1.5 h 27 c 0.828,0 1.5,0.672 1.5,1.5 v 27 c 0,0.828 0.672,1.5 1.5,1.5 H 390 v 15 z m -60,0 H 300 v -15 h 30 v 13.5 c 0,0.828 -0.672,1.5 -1.5,1.5 z m -30,-15 H 285 v -30 h 15 v 30 z m -135,0 h -12 c -0.828,0 -1.5,-0.672 -1.5,-1.5 v -12 c 0,-0.828 0.672,-1.5 1.5,-1.5 H 165 v 13.5 c 0,0.828 -0.672,1.5 -1.5,1.5 z m -30,0 H 120 v -13.5 c 0,-0.828 0.672,-1.5 1.5,-1.5 h 12 c 0.828,0 1.5,0.672 1.5,1.5 v 12 c 0,0.828 -0.672,1.5 -1.5,1.5 z m -60,0 h -12 c -0.8284,0 -1.5,-0.672 -1.5,-1.5 v -12 c 0,-0.828 0.6716,-1.5 1.5,-1.5 H 75 v 13.5 c 0,0.828 -0.6716,1.5 -1.5,1.5 z m 510,-15 h -72 c -0.828,0 -1.5,-0.672 -1.5,-1.5 V 495 h 13.5 c 0.828,0 1.5,-0.672 1.5,-1.5 v -12 c 0,-0.828 0.672,-1.5 1.5,-1.5 H 555 v 13.5 c 0,0.828 0.672,1.5 1.5,1.5 h 12 c 0.828,0 1.5,-0.672 1.5,-1.5 V 480 h 13.5 c 0.828,0 1.5,-0.672 1.5,-1.5 v -12 c 0,-0.828 0.672,-1.5 1.5,-1.5 h 12 c 0.828,0 1.5,-0.672 1.5,-1.5 v -12 c 0,-0.828 0.672,-1.5 1.5,-1.5 h 12 c 0.828,0 1.5,0.672 1.5,1.5 v 42 c 0,0.828 -0.672,1.5 -1.5,1.5 h -27 c -0.828,0 -1.5,0.672 -1.5,1.5 v 12 c 0,0.828 -0.672,1.5 -1.5,1.5 z m -105,0 h -12 c -0.828,0 -1.5,-0.672 -1.5,-1.5 v -12 c 0,-0.828 -0.672,-1.5 -1.5,-1.5 H 450 v -13.5 c 0,-0.828 0.672,-1.5 1.5,-1.5 h 27 c 0.828,0 1.5,0.672 1.5,1.5 v 27 c 0,0.828 -0.672,1.5 -1.5,1.5 z m -30,0 H 420 v -28.5 c 0,-0.828 -0.672,-1.5 -1.5,-1.5 h -57 c -0.828,0 -1.5,-0.672 -1.5,-1.5 v -12 c 0,-0.828 -0.672,-1.5 -1.5,-1.5 h -12 c -0.828,0 -1.5,-0.672 -1.5,-1.5 V 450 h 45 v 13.5 c 0,0.828 0.672,1.5 1.5,1.5 H 435 v 28.5 c 0,0.828 0.672,1.5 1.5,1.5 H 450 v 13.5 c 0,0.828 -0.672,1.5 -1.5,1.5 z m -345,0 H 75 v -13.5 c 0,-0.828 0.6716,-1.5 1.5,-1.5 h 27 c 0.828,0 1.5,0.672 1.5,1.5 v 12 c 0,0.828 -0.672,1.5 -1.5,1.5 z m 405,-15 h -12 c -0.828,0 -1.5,-0.672 -1.5,-1.5 V 435 h 28.5 c 0.828,0 1.5,0.672 1.5,1.5 v 12 c 0,0.828 -0.672,1.5 -1.5,1.5 h -12 c -0.828,0 -1.5,0.672 -1.5,1.5 V 495 Z m -195,0 H 300 v -15 h 15 v 15 z m -30,0 H 270 v -15 h 15 v 15 z m -30,0 h -12 c -0.828,0 -1.5,-0.672 -1.5,-1.5 V 480 h 15 v 15 z m 450,-15 H 690 v -13.5 c 0,-0.828 -0.672,-1.5 -1.5,-1.5 h -12 c -0.828,0 -1.5,-0.672 -1.5,-1.5 V 435 h 13.5 c 0.828,0 1.5,0.672 1.5,1.5 v 12 c 0,0.828 0.672,1.5 1.5,1.5 H 705 v 28.5 c 0,0.828 -0.672,1.5 -1.5,1.5 z m -45,0 h -12 c -0.828,0 -1.5,-0.672 -1.5,-1.5 v -42 c 0,-0.828 -0.672,-1.5 -1.5,-1.5 h -42 c -0.828,0 -1.5,-0.672 -1.5,-1.5 v -12 c 0,-0.828 -0.672,-1.5 -1.5,-1.5 h -12 c -0.828,0 -1.5,0.672 -1.5,1.5 v 12 c 0,0.828 -0.672,1.5 -1.5,1.5 H 570 v -28.5 c 0,-0.828 -0.672,-1.5 -1.5,-1.5 h -12 c -0.828,0 -1.5,0.672 -1.5,1.5 V 435 h -13.5 c -0.828,0 -1.5,-0.672 -1.5,-1.5 v -42 c 0,-0.828 0.672,-1.5 1.5,-1.5 h 12 c 0.828,0 1.5,-0.672 1.5,-1.5 v -12 c 0,-0.828 0.672,-1.5 1.5,-1.5 h 27 c 0.828,0 1.5,-0.672 1.5,-1.5 v -27 c 0,-0.828 0.672,-1.5 1.5,-1.5 h 12 c 0.828,0 1.5,0.672 1.5,1.5 v 12 c 0,0.828 0.672,1.5 1.5,1.5 h 12 c 0.828,0 1.5,-0.672 1.5,-1.5 v -27 c 0,-0.828 -0.672,-1.5 -1.5,-1.5 h -12 c -0.828,0 -1.5,-0.672 -1.5,-1.5 V 315 h 13.5 c 0.828,0 1.5,-0.672 1.5,-1.5 v -12 c 0,-0.828 -0.672,-1.5 -1.5,-1.5 H 600 v -28.5 c 0,-0.828 -0.672,-1.5 -1.5,-1.5 h -12 c -0.828,0 -1.5,-0.672 -1.5,-1.5 v -12 c 0,-0.828 -0.672,-1.5 -1.5,-1.5 h -12 c -0.828,0 -1.5,0.672 -1.5,1.5 V 285 h -28.5 c -0.828,0 -1.5,-0.672 -1.5,-1.5 V 270 h 13.5 c 0.828,0 1.5,-0.672 1.5,-1.5 v -12 c 0,-0.828 -0.672,-1.5 -1.5,-1.5 H 540 v -30 h 15 v 13.5 c 0,0.828 0.672,1.5 1.5,1.5 h 42 c 0.828,0 1.5,0.672 1.5,1.5 v 12 c 0,0.828 0.672,1.5 1.5,1.5 h 12 c 0.828,0 1.5,0.672 1.5,1.5 v 12 c 0,0.828 0.672,1.5 1.5,1.5 h 12 c 0.828,0 1.5,-0.672 1.5,-1.5 v -27 c 0,-0.828 0.672,-1.5 1.5,-1.5 h 12 c 0.828,0 1.5,0.672 1.5,1.5 v 27 c 0,0.828 0.672,1.5 1.5,1.5 h 27 c 0.828,0 1.5,-0.672 1.5,-1.5 v -12 c 0,-0.828 -0.672,-1.5 -1.5,-1.5 h -12 c -0.828,0 -1.5,-0.672 -1.5,-1.5 v -12 c 0,-0.828 0.672,-1.5 1.5,-1.5 H 690 v 28.5 c 0,0.828 0.672,1.5 1.5,1.5 H 705 v 13.5 c 0,0.828 0.672,1.5 1.5,1.5 h 12 c 0.828,0 1.5,0.672 1.5,1.5 V 300 h -28.5 c -0.828,0 -1.5,0.672 -1.5,1.5 v 27 c 0,0.828 0.672,1.5 1.5,1.5 h 27 c 0.828,0 1.5,-0.672 1.5,-1.5 V 300 h 13.5 c 0.828,0 1.5,0.672 1.5,1.5 v 72 c 0,0.828 -0.672,1.5 -1.5,1.5 h -12 c -0.828,0 -1.5,0.672 -1.5,1.5 v 12 c 0,0.828 0.672,1.5 1.5,1.5 h 12 c 0.828,0 1.5,0.672 1.5,1.5 v 12 c 0,0.828 -0.672,1.5 -1.5,1.5 h -27 c -0.828,0 -1.5,0.672 -1.5,1.5 v 12 c 0,0.828 -0.672,1.5 -1.5,1.5 h -12 c -0.828,0 -1.5,-0.672 -1.5,-1.5 v -12 c 0,-0.828 -0.672,-1.5 -1.5,-1.5 h -12 c -0.828,0 -1.5,0.672 -1.5,1.5 V 435 h -13.5 c -0.828,0 -1.5,0.672 -1.5,1.5 V 480 Z m -90,0 H 555 v -13.5 c 0,-0.828 -0.672,-1.5 -1.5,-1.5 h -12 c -0.828,0 -1.5,-0.672 -1.5,-1.5 v -12 c 0,-0.828 0.672,-1.5 1.5,-1.5 h 12 c 0.828,0 1.5,-0.672 1.5,-1.5 V 435 h 15 v 45 z m -240,0 H 315 v -13.5 c 0,-0.828 0.672,-1.5 1.5,-1.5 h 12 c 0.828,0 1.5,0.672 1.5,1.5 V 480 Z m -30,0 H 285 v -13.5 c 0,-0.828 0.672,-1.5 1.5,-1.5 h 12 c 0.828,0 1.5,0.672 1.5,1.5 V 480 Z m -30,0 H 255 v -45 h 15 v 45 z m -30,0 H 210 v -28.5 c 0,-0.828 -0.672,-1.5 -1.5,-1.5 h -12 c -0.828,0 -1.5,-0.672 -1.5,-1.5 V 435 h 13.5 c 0.828,0 1.5,-0.672 1.5,-1.5 v -27 c 0,-0.828 0.672,-1.5 1.5,-1.5 H 240 v 15 h -13.5 c -0.828,0 -1.5,0.672 -1.5,1.5 v 42 c 0,0.828 0.672,1.5 1.5,1.5 h 12 c 0.828,0 1.5,0.672 1.5,1.5 V 480 Z M 165,478.5 v -12 c 0,-0.828 -0.672,-1.5 -1.5,-1.5 h -27 c -0.828,0 -1.5,0.672 -1.5,1.5 v 12 c 0,0.828 0.672,1.5 1.5,1.5 h 27 c 0.828,0 1.5,-0.672 1.5,-1.5 z m -61.5,1.5 h -27 C 75.6716,480 75,479.328 75,478.5 V 465 h 13.5 c 0.8284,0 1.5,-0.672 1.5,-1.5 v -12 c 0,-0.828 0.6716,-1.5 1.5,-1.5 H 105 v 28.5 c 0,0.828 -0.672,1.5 -1.5,1.5 z m 360,-15 H 435 v -15 h 13.5 c 0.828,0 1.5,-0.672 1.5,-1.5 V 420 h 13.5 c 0.828,0 1.5,0.672 1.5,1.5 v 12 c 0,0.828 0.672,1.5 1.5,1.5 H 480 v 13.5 c 0,0.828 -0.672,1.5 -1.5,1.5 h -12 c -0.828,0 -1.5,0.672 -1.5,1.5 v 12 c 0,0.828 -0.672,1.5 -1.5,1.5 z m -390,0 h -12 c -0.8284,0 -1.5,-0.672 -1.5,-1.5 v -12 c 0,-0.828 0.6716,-1.5 1.5,-1.5 h 12 c 0.8284,0 1.5,0.672 1.5,1.5 V 465 Z m 645,-15 H 705 v -13.5 c 0,-0.828 0.672,-1.5 1.5,-1.5 H 720 v 13.5 c 0,0.828 -0.672,1.5 -1.5,1.5 z m -285,0 h -12 c -0.828,0 -1.5,-0.672 -1.5,-1.5 v -12 c 0,-0.828 -0.672,-1.5 -1.5,-1.5 h -12 c -0.828,0 -1.5,0.672 -1.5,1.5 v 12 c 0,0.828 -0.672,1.5 -1.5,1.5 H 390 v -13.5 c 0,-0.828 -0.672,-1.5 -1.5,-1.5 h -27 c -0.828,0 -1.5,-0.672 -1.5,-1.5 v -12 c 0,-0.828 -0.672,-1.5 -1.5,-1.5 h -12 c -0.828,0 -1.5,0.672 -1.5,1.5 V 450 h -13.5 c -0.828,0 -1.5,-0.672 -1.5,-1.5 v -12 c 0,-0.828 -0.672,-1.5 -1.5,-1.5 H 270 v -15 h 43.5 c 0.828,0 1.5,-0.672 1.5,-1.5 V 405 h 28.5 c 0.828,0 1.5,-0.672 1.5,-1.5 V 375 h 13.5 c 0.828,0 1.5,-0.672 1.5,-1.5 v -27 c 0,-0.828 0.672,-1.5 1.5,-1.5 h 12 c 0.828,0 1.5,0.672 1.5,1.5 v 12 c 0,0.828 0.672,1.5 1.5,1.5 h 57 c 0.828,0 1.5,-0.672 1.5,-1.5 v -12 c 0,-0.828 -0.672,-1.5 -1.5,-1.5 h -42 c -0.828,0 -1.5,-0.672 -1.5,-1.5 v -12 c 0,-0.828 -0.672,-1.5 -1.5,-1.5 H 345 v -13.5 c 0,-0.828 -0.672,-1.5 -1.5,-1.5 H 330 v -13.5 c 0,-0.828 -0.672,-1.5 -1.5,-1.5 h -12 c -0.828,0 -1.5,0.672 -1.5,1.5 v 12 c 0,0.828 0.672,1.5 1.5,1.5 H 330 v 13.5 c 0,0.828 0.672,1.5 1.5,1.5 H 345 v 13.5 c 0,0.828 -0.672,1.5 -1.5,1.5 h -27 c -0.828,0 -1.5,-0.672 -1.5,-1.5 v -12 c 0,-0.828 -0.672,-1.5 -1.5,-1.5 h -12 c -0.828,0 -1.5,-0.672 -1.5,-1.5 v -12 c 0,-0.828 -0.672,-1.5 -1.5,-1.5 H 285 v -28.5 c 0,-0.828 0.672,-1.5 1.5,-1.5 h 27 c 0.828,0 1.5,-0.672 1.5,-1.5 V 270 h 45 v 13.5 c 0,0.828 0.672,1.5 1.5,1.5 h 12 c 0.828,0 1.5,0.672 1.5,1.5 V 300 h -13.5 c -0.828,0 -1.5,0.672 -1.5,1.5 v 12 c 0,0.828 0.672,1.5 1.5,1.5 h 12 c 0.828,0 1.5,-0.672 1.5,-1.5 V 300 h 13.5 c 0.828,0 1.5,-0.672 1.5,-1.5 V 255 h 13.5 c 0.828,0 1.5,0.672 1.5,1.5 v 12 c 0,0.828 0.672,1.5 1.5,1.5 h 42 c 0.828,0 1.5,-0.672 1.5,-1.5 v -12 c 0,-0.828 -0.672,-1.5 -1.5,-1.5 h -27 c -0.828,0 -1.5,-0.672 -1.5,-1.5 v -12 c 0,-0.828 -0.672,-1.5 -1.5,-1.5 h -27 c -0.828,0 -1.5,0.672 -1.5,1.5 V 255 h -13.5 c -0.828,0 -1.5,0.672 -1.5,1.5 v 12 c 0,0.828 -0.672,1.5 -1.5,1.5 H 360 v -13.5 c 0,-0.828 -0.672,-1.5 -1.5,-1.5 h -27 c -0.828,0 -1.5,-0.672 -1.5,-1.5 v -27 c 0,-0.828 -0.672,-1.5 -1.5,-1.5 H 300 v -28.5 c 0,-0.828 -0.672,-1.5 -1.5,-1.5 h -12 c -0.828,0 -1.5,-0.672 -1.5,-1.5 v -12 c 0,-0.828 -0.672,-1.5 -1.5,-1.5 H 255 v -15 h 13.5 c 0.828,0 1.5,-0.672 1.5,-1.5 V 135 h 13.5 c 0.828,0 1.5,-0.672 1.5,-1.5 v -12 c 0,-0.828 0.672,-1.5 1.5,-1.5 h 12 c 0.828,0 1.5,-0.672 1.5,-1.5 V 105 h 13.5 c 0.828,0 1.5,-0.672 1.5,-1.5 v -12 c 0,-0.8284 0.672,-1.5 1.5,-1.5 H 330 v 13.5 c 0,0.828 0.672,1.5 1.5,1.5 H 345 v 15 h -28.5 c -0.828,0 -1.5,0.672 -1.5,1.5 v 12 c 0,0.828 -0.672,1.5 -1.5,1.5 h -12 c -0.828,0 -1.5,0.672 -1.5,1.5 V 150 h -13.5 c -0.828,0 -1.5,0.672 -1.5,1.5 v 12 c 0,0.828 0.672,1.5 1.5,1.5 h 12 c 0.828,0 1.5,-0.672 1.5,-1.5 V 150 h 13.5 c 0.828,0 1.5,0.672 1.5,1.5 v 12 c 0,0.828 0.672,1.5 1.5,1.5 h 12 c 0.828,0 1.5,-0.672 1.5,-1.5 v -12 c 0,-0.828 0.672,-1.5 1.5,-1.5 h 12 c 0.828,0 1.5,0.672 1.5,1.5 v 27 c 0,0.828 0.672,1.5 1.5,1.5 h 12 c 0.828,0 1.5,-0.672 1.5,-1.5 v -42 c 0,-0.828 -0.672,-1.5 -1.5,-1.5 h -12 c -0.828,0 -1.5,-0.672 -1.5,-1.5 V 120 h 58.5 c 0.828,0 1.5,-0.672 1.5,-1.5 V 105 h 15 v 13.5 c 0,0.828 0.672,1.5 1.5,1.5 h 12 c 0.828,0 1.5,0.672 1.5,1.5 v 12 c 0,0.828 0.672,1.5 1.5,1.5 h 12 c 0.828,0 1.5,-0.672 1.5,-1.5 v -12 c 0,-0.828 0.672,-1.5 1.5,-1.5 H 465 v 43.5 c 0,0.828 -0.672,1.5 -1.5,1.5 h -12 c -0.828,0 -1.5,-0.672 -1.5,-1.5 v -12 c 0,-0.828 -0.672,-1.5 -1.5,-1.5 h -12 c -0.828,0 -1.5,0.672 -1.5,1.5 v 27 c 0,0.828 0.672,1.5 1.5,1.5 h 12 c 0.828,0 1.5,0.672 1.5,1.5 v 12 c 0,0.828 0.672,1.5 1.5,1.5 H 480 v 15 h -45 v -13.5 c 0,-0.828 -0.672,-1.5 -1.5,-1.5 h -42 c -0.828,0 -1.5,0.672 -1.5,1.5 v 27 c 0,0.828 0.672,1.5 1.5,1.5 h 27 c 0.828,0 1.5,-0.672 1.5,-1.5 v -12 c 0,-0.828 0.672,-1.5 1.5,-1.5 H 435 v 13.5 c 0,0.828 0.672,1.5 1.5,1.5 h 12 c 0.828,0 1.5,0.672 1.5,1.5 v 12 c 0,0.828 0.672,1.5 1.5,1.5 h 12 c 0.828,0 1.5,-0.672 1.5,-1.5 v -12 c 0,-0.828 0.672,-1.5 1.5,-1.5 H 480 v 13.5 c 0,0.828 0.672,1.5 1.5,1.5 H 495 v 15 h -13.5 c -0.828,0 -1.5,0.672 -1.5,1.5 V 270 h -13.5 c -0.828,0 -1.5,0.672 -1.5,1.5 v 12 c 0,0.828 -0.672,1.5 -1.5,1.5 h -12 c -0.828,0 -1.5,0.672 -1.5,1.5 v 12 c 0,0.828 0.672,1.5 1.5,1.5 h 27 c 0.828,0 1.5,0.672 1.5,1.5 v 12 c 0,0.828 0.672,1.5 1.5,1.5 h 12 c 0.828,0 1.5,0.672 1.5,1.5 v 12 c 0,0.828 0.672,1.5 1.5,1.5 H 510 v 15 h -13.5 c -0.828,0 -1.5,0.672 -1.5,1.5 v 12 c 0,0.828 0.672,1.5 1.5,1.5 H 510 v 13.5 c 0,0.828 0.672,1.5 1.5,1.5 H 525 v 13.5 c 0,0.828 -0.672,1.5 -1.5,1.5 h -27 c -0.828,0 -1.5,-0.672 -1.5,-1.5 v -12 c 0,-0.828 -0.672,-1.5 -1.5,-1.5 H 480 v -43.5 c 0,-0.828 -0.672,-1.5 -1.5,-1.5 h -12 c -0.828,0 -1.5,-0.672 -1.5,-1.5 v -12 c 0,-0.828 -0.672,-1.5 -1.5,-1.5 h -12 c -0.828,0 -1.5,0.672 -1.5,1.5 v 27 c 0,0.828 0.672,1.5 1.5,1.5 h 12 c 0.828,0 1.5,0.672 1.5,1.5 v 12 c 0,0.828 -0.672,1.5 -1.5,1.5 h -12 c -0.828,0 -1.5,0.672 -1.5,1.5 v 12 c 0,0.828 0.672,1.5 1.5,1.5 H 480 v 13.5 c 0,0.828 -0.672,1.5 -1.5,1.5 h -12 c -0.828,0 -1.5,0.672 -1.5,1.5 v 12 c 0,0.828 -0.672,1.5 -1.5,1.5 h -12 c -0.828,0 -1.5,0.672 -1.5,1.5 V 420 h -13.5 c -0.828,0 -1.5,0.672 -1.5,1.5 V 450 Z m -315,0 H 105 v -15 h 15 v 15 z m 615,-15 H 720 v -13.5 c 0,-0.828 0.672,-1.5 1.5,-1.5 h 12 c 0.828,0 1.5,0.672 1.5,1.5 v 12 c 0,0.828 -0.672,1.5 -1.5,1.5 z m -240,0 H 480 v -13.5 c 0,-0.828 0.672,-1.5 1.5,-1.5 H 495 v 15 z m -240,0 h -12 c -0.828,0 -1.5,-0.672 -1.5,-1.5 V 420 h 15 v 15 z M 660,418.5 v -42 c 0,-0.828 -0.672,-1.5 -1.5,-1.5 h -42 c -0.828,0 -1.5,0.672 -1.5,1.5 v 42 c 0,0.828 0.672,1.5 1.5,1.5 h 42 c 0.828,0 1.5,-0.672 1.5,-1.5 z M 523.5,420 H 495 v -13.5 c 0,-0.828 0.672,-1.5 1.5,-1.5 h 27 c 0.828,0 1.5,0.672 1.5,1.5 v 12 c 0,0.828 -0.672,1.5 -1.5,1.5 z M 420,418.5 v -42 c 0,-0.828 -0.672,-1.5 -1.5,-1.5 h -42 c -0.828,0 -1.5,0.672 -1.5,1.5 v 42 c 0,0.828 0.672,1.5 1.5,1.5 h 42 c 0.828,0 1.5,-0.672 1.5,-1.5 z M 268.5,420 H 255 v -15 h 13.5 c 0.828,0 1.5,0.672 1.5,1.5 V 420 Z M 180,418.5 v -42 c 0,-0.828 -0.672,-1.5 -1.5,-1.5 h -42 c -0.828,0 -1.5,0.672 -1.5,1.5 v 42 c 0,0.828 0.672,1.5 1.5,1.5 h 42 c 0.828,0 1.5,-0.672 1.5,-1.5 z M 643.5,405 h -12 c -0.828,0 -1.5,-0.672 -1.5,-1.5 v -12 c 0,-0.828 0.672,-1.5 1.5,-1.5 h 12 c 0.828,0 1.5,0.672 1.5,1.5 v 12 c 0,0.828 -0.672,1.5 -1.5,1.5 z M 600,403.5 v -12 c 0,-0.828 -0.672,-1.5 -1.5,-1.5 h -12 c -0.828,0 -1.5,0.672 -1.5,1.5 v 12 c 0,0.828 0.672,1.5 1.5,1.5 h 12 c 0.828,0 1.5,-0.672 1.5,-1.5 z M 403.5,405 h -12 c -0.828,0 -1.5,-0.672 -1.5,-1.5 v -12 c 0,-0.828 0.672,-1.5 1.5,-1.5 h 12 c 0.828,0 1.5,0.672 1.5,1.5 v 12 c 0,0.828 -0.672,1.5 -1.5,1.5 z m -90,0 h -27 c -0.828,0 -1.5,-0.672 -1.5,-1.5 v -27 c 0,-0.828 0.672,-1.5 1.5,-1.5 h 12 c 0.828,0 1.5,0.672 1.5,1.5 v 12 c 0,0.828 0.672,1.5 1.5,1.5 h 12 c 0.828,0 1.5,0.672 1.5,1.5 V 405 Z m -60,0 H 240 v -13.5 c 0,-0.828 0.672,-1.5 1.5,-1.5 h 12 c 0.828,0 1.5,0.672 1.5,1.5 V 405 Z m -90,0 h -12 c -0.828,0 -1.5,-0.672 -1.5,-1.5 v -12 c 0,-0.828 0.672,-1.5 1.5,-1.5 h 12 c 0.828,0 1.5,0.672 1.5,1.5 v 12 c 0,0.828 -0.672,1.5 -1.5,1.5 z m -75,-15 h -27 c -0.8284,0 -1.5,-0.672 -1.5,-1.5 v -12 c 0,-0.828 0.6716,-1.5 1.5,-1.5 H 90 v 15 z M 705,373.5 V 360 h 13.5 c 0.828,0 1.5,-0.672 1.5,-1.5 v -12 c 0,-0.828 -0.672,-1.5 -1.5,-1.5 h -12 c -0.828,0 -1.5,0.672 -1.5,1.5 V 360 h -13.5 c -0.828,0 -1.5,-0.672 -1.5,-1.5 v -12 c 0,-0.828 -0.672,-1.5 -1.5,-1.5 h -12 c -0.828,0 -1.5,0.672 -1.5,1.5 v 27 c 0,0.828 0.672,1.5 1.5,1.5 h 27 c 0.828,0 1.5,-0.672 1.5,-1.5 z M 538.5,375 H 525 v -15 h 13.5 c 0.828,0 1.5,0.672 1.5,1.5 v 12 c 0,0.828 -0.672,1.5 -1.5,1.5 z m -195,0 h -27 c -0.828,0 -1.5,-0.672 -1.5,-1.5 v -12 c 0,-0.828 0.672,-1.5 1.5,-1.5 h 27 c 0.828,0 1.5,0.672 1.5,1.5 V 375 Z m -75,0 h -27 c -0.828,0 -1.5,-0.672 -1.5,-1.5 V 345 h 15 v 13.5 c 0,0.828 0.672,1.5 1.5,1.5 H 270 v 13.5 c 0,0.828 -0.672,1.5 -1.5,1.5 z m -165,0 H 90 v -28.5 c 0,-0.828 0.6716,-1.5 1.5,-1.5 h 12 c 0.828,0 1.5,0.672 1.5,1.5 V 375 Z M 660,358.5 v -12 c 0,-0.828 -0.672,-1.5 -1.5,-1.5 H 645 v -13.5 c 0,-0.828 0.672,-1.5 1.5,-1.5 h 27 c 0.828,0 1.5,-0.672 1.5,-1.5 v -42 c 0,-0.828 -0.672,-1.5 -1.5,-1.5 h -42 c -0.828,0 -1.5,0.672 -1.5,1.5 v 12 c 0,0.828 0.672,1.5 1.5,1.5 h 27 c 0.828,0 1.5,0.672 1.5,1.5 v 12 c 0,0.828 -0.672,1.5 -1.5,1.5 h -27 c -0.828,0 -1.5,0.672 -1.5,1.5 v 27 c 0,0.828 0.672,1.5 1.5,1.5 H 645 v 13.5 c 0,0.828 0.672,1.5 1.5,1.5 h 12 c 0.828,0 1.5,-0.672 1.5,-1.5 z M 523.5,360 H 510 v -15 h 13.5 c 0.828,0 1.5,0.672 1.5,1.5 V 360 Z m -225,0 H 270 v -13.5 c 0,-0.828 -0.672,-1.5 -1.5,-1.5 H 255 v -13.5 c 0,-0.828 0.672,-1.5 1.5,-1.5 h 12 c 0.828,0 1.5,-0.672 1.5,-1.5 V 315 h 15 v 28.5 c 0,0.828 0.672,1.5 1.5,1.5 h 12 c 0.828,0 1.5,0.672 1.5,1.5 v 12 c 0,0.828 -0.672,1.5 -1.5,1.5 z m 270,-15 h -12 c -0.828,0 -1.5,-0.672 -1.5,-1.5 V 330 h 15 v 13.5 c 0,0.828 -0.672,1.5 -1.5,1.5 z m -330,0 h -12 c -0.828,0 -1.5,-0.672 -1.5,-1.5 V 330 h 13.5 c 0.828,0 1.5,0.672 1.5,1.5 V 345 Z m -60,0 H 135 v -13.5 c 0,-0.828 -0.672,-1.5 -1.5,-1.5 h -12 c -0.828,0 -1.5,-0.672 -1.5,-1.5 V 315 h 13.5 c 0.828,0 1.5,-0.672 1.5,-1.5 V 300 h 58.5 c 0.828,0 1.5,-0.672 1.5,-1.5 V 285 h 30 v 13.5 c 0,0.828 0.672,1.5 1.5,1.5 h 42 c 0.828,0 1.5,0.672 1.5,1.5 V 315 h -43.5 c -0.828,0 -1.5,0.672 -1.5,1.5 V 330 h -15 v -13.5 c 0,-0.828 -0.672,-1.5 -1.5,-1.5 h -12 c -0.828,0 -1.5,0.672 -1.5,1.5 V 330 h -15 v -13.5 c 0,-0.828 -0.672,-1.5 -1.5,-1.5 h -27 c -0.828,0 -1.5,0.672 -1.5,1.5 v 12 c 0,0.828 0.672,1.5 1.5,1.5 H 180 v 15 z m 405,-15 H 570 v -13.5 c 0,-0.828 0.672,-1.5 1.5,-1.5 H 585 v 13.5 c 0,0.828 -0.672,1.5 -1.5,1.5 z m -30,0 H 510 v -30 h 43.5 c 0.828,0 1.5,0.672 1.5,1.5 V 330 Z M 435,328.5 v -12 c 0,-0.828 -0.672,-1.5 -1.5,-1.5 H 420 v -13.5 c 0,-0.828 -0.672,-1.5 -1.5,-1.5 h -12 c -0.828,0 -1.5,0.672 -1.5,1.5 v 12 c 0,0.828 0.672,1.5 1.5,1.5 H 420 v 13.5 c 0,0.828 0.672,1.5 1.5,1.5 h 12 c 0.828,0 1.5,-0.672 1.5,-1.5 z M 103.5,330 h -12 c -0.8284,0 -1.5,-0.672 -1.5,-1.5 v -12 c 0,-0.828 0.6716,-1.5 1.5,-1.5 H 105 v 13.5 c 0,0.828 -0.672,1.5 -1.5,1.5 z m 495,-15 H 585 v -15 h 15 v 15 z m -480,0 H 105 v -15 h 15 v 15 z m 465,-15 h -12 c -0.828,0 -1.5,-0.672 -1.5,-1.5 V 285 h 13.5 c 0.828,0 1.5,0.672 1.5,1.5 V 300 Z m -75,0 h -12 c -0.828,0 -1.5,-0.672 -1.5,-1.5 V 285 h 13.5 c 0.828,0 1.5,0.672 1.5,1.5 V 300 Z m -375,0 H 120 v -58.5 c 0,-0.828 -0.672,-1.5 -1.5,-1.5 h -27 c -0.8284,0 -1.5,0.672 -1.5,1.5 V 255 H 61.5 c -0.8284,0 -1.5,-0.672 -1.5,-1.5 v -12 c 0,-0.828 0.6716,-1.5 1.5,-1.5 h 12 c 0.8284,0 1.5,-0.672 1.5,-1.5 v -12 c 0,-0.828 -0.6716,-1.5 -1.5,-1.5 h -12 c -0.8284,0 -1.5,-0.672 -1.5,-1.5 v -12 c 0,-0.828 0.6716,-1.5 1.5,-1.5 H 90 v 13.5 c 0,0.828 0.6716,1.5 1.5,1.5 H 135 v 28.5 c 0,0.828 0.672,1.5 1.5,1.5 H 150 v 13.5 c 0,0.828 0.672,1.5 1.5,1.5 H 165 v 13.5 c 0,0.828 -0.672,1.5 -1.5,1.5 h -27 c -0.828,0 -1.5,0.672 -1.5,1.5 V 300 Z m -30,0 h -27 c -0.8284,0 -1.5,-0.672 -1.5,-1.5 v -12 c 0,-0.828 -0.6716,-1.5 -1.5,-1.5 h -12 c -0.8284,0 -1.5,-0.672 -1.5,-1.5 v -12 c 0,-0.828 0.6716,-1.5 1.5,-1.5 H 90 v 13.5 c 0,0.828 0.6716,1.5 1.5,1.5 h 12 c 0.828,0 1.5,0.672 1.5,1.5 V 300 Z m 390,-15 h -12 c -0.828,0 -1.5,-0.672 -1.5,-1.5 V 270 h 15 v 15 z m -225,0 h -12 c -0.828,0 -1.5,-0.672 -1.5,-1.5 v -27 c 0,-0.828 -0.672,-1.5 -1.5,-1.5 H 195 v -28.5 c 0,-0.828 0.672,-1.5 1.5,-1.5 H 210 v 13.5 c 0,0.828 0.672,1.5 1.5,1.5 h 27 c 0.828,0 1.5,-0.672 1.5,-1.5 V 180 h 15 v 13.5 c 0,0.828 0.672,1.5 1.5,1.5 h 12 c 0.828,0 1.5,0.672 1.5,1.5 v 12 c 0,0.828 0.672,1.5 1.5,1.5 h 12 c 0.828,0 1.5,0.672 1.5,1.5 V 225 h -28.5 c -0.828,0 -1.5,0.672 -1.5,1.5 v 12 c 0,0.828 0.672,1.5 1.5,1.5 h 27 c 0.828,0 1.5,-0.672 1.5,-1.5 V 225 h 15 v 28.5 c 0,0.828 0.672,1.5 1.5,1.5 h 12 c 0.828,0 1.5,0.672 1.5,1.5 V 270 h -43.5 c -0.828,0 -1.5,0.672 -1.5,1.5 v 12 c 0,0.828 -0.672,1.5 -1.5,1.5 z m -30,0 H 225 v -13.5 c 0,-0.828 0.672,-1.5 1.5,-1.5 h 12 c 0.828,0 1.5,0.672 1.5,1.5 v 12 c 0,0.828 -0.672,1.5 -1.5,1.5 z m -45,0 h -12 c -0.828,0 -1.5,-0.672 -1.5,-1.5 v -12 c 0,-0.828 -0.672,-1.5 -1.5,-1.5 H 165 v -13.5 c 0,-0.828 -0.672,-1.5 -1.5,-1.5 H 150 v -13.5 c 0,-0.828 0.672,-1.5 1.5,-1.5 h 12 c 0.828,0 1.5,-0.672 1.5,-1.5 V 225 h 13.5 c 0.828,0 1.5,0.672 1.5,1.5 v 27 c 0,0.828 0.672,1.5 1.5,1.5 H 195 v 30 z m 525,-15 H 705 v -30 h 13.5 c 0.828,0 1.5,0.672 1.5,1.5 v 27 c 0,0.828 -0.672,1.5 -1.5,1.5 z m -180,0 H 495 v -15 h 13.5 c 0.828,0 1.5,-0.672 1.5,-1.5 V 240 h 13.5 c 0.828,0 1.5,0.672 1.5,1.5 v 12 c 0,0.828 0.672,1.5 1.5,1.5 H 540 v 15 z m -435,0 H 90 v -15 h 13.5 c 0.828,0 1.5,0.672 1.5,1.5 v 12 c 0,0.828 -0.672,1.5 -1.5,1.5 z m 600,-30 H 690 v -28.5 c 0,-0.828 -0.672,-1.5 -1.5,-1.5 h -12 c -0.828,0 -1.5,-0.672 -1.5,-1.5 V 195 h 13.5 c 0.828,0 1.5,-0.672 1.5,-1.5 v -12 c 0,-0.828 0.672,-1.5 1.5,-1.5 h 42 c 0.828,0 1.5,0.672 1.5,1.5 v 12 c 0,0.828 -0.672,1.5 -1.5,1.5 h -12 c -0.828,0 -1.5,0.672 -1.5,1.5 v 12 c 0,0.828 0.672,1.5 1.5,1.5 h 12 c 0.828,0 1.5,0.672 1.5,1.5 v 12 c 0,0.828 -0.672,1.5 -1.5,1.5 h -27 c -0.828,0 -1.5,0.672 -1.5,1.5 V 240 Z m -195,0 H 495 v -13.5 c 0,-0.828 -0.672,-1.5 -1.5,-1.5 H 480 v -15 h 13.5 c 0.828,0 1.5,-0.672 1.5,-1.5 v -12 c 0,-0.828 -0.672,-1.5 -1.5,-1.5 H 480 v -43.5 c 0,-0.828 0.672,-1.5 1.5,-1.5 H 495 v 13.5 c 0,0.828 0.672,1.5 1.5,1.5 h 12 c 0.828,0 1.5,-0.672 1.5,-1.5 V 150 h 13.5 c 0.828,0 1.5,0.672 1.5,1.5 v 12 c 0,0.828 0.672,1.5 1.5,1.5 H 540 v 13.5 c 0,0.828 -0.672,1.5 -1.5,1.5 h -12 c -0.828,0 -1.5,0.672 -1.5,1.5 V 210 h -13.5 c -0.828,0 -1.5,0.672 -1.5,1.5 V 240 Z M 375,238.5 v -27 c 0,-0.828 -0.672,-1.5 -1.5,-1.5 H 345 v -13.5 c 0,-0.828 -0.672,-1.5 -1.5,-1.5 h -27 c -0.828,0 -1.5,0.672 -1.5,1.5 v 12 c 0,0.828 0.672,1.5 1.5,1.5 H 345 v 13.5 c 0,0.828 0.672,1.5 1.5,1.5 h 12 c 0.828,0 1.5,0.672 1.5,1.5 v 12 c 0,0.828 0.672,1.5 1.5,1.5 h 12 c 0.828,0 1.5,-0.672 1.5,-1.5 z M 658.5,225 h -12 c -0.828,0 -1.5,-0.672 -1.5,-1.5 v -12 c 0,-0.828 -0.672,-1.5 -1.5,-1.5 H 630 v -15 h 30 v 28.5 c 0,0.828 -0.672,1.5 -1.5,1.5 z m -30,0 h -27 c -0.828,0 -1.5,-0.672 -1.5,-1.5 v -12 c 0,-0.828 -0.672,-1.5 -1.5,-1.5 h -12 c -0.828,0 -1.5,0.672 -1.5,1.5 v 12 c 0,0.828 -0.672,1.5 -1.5,1.5 H 555 v -13.5 c 0,-0.828 -0.672,-1.5 -1.5,-1.5 H 540 v -13.5 c 0,-0.828 0.672,-1.5 1.5,-1.5 h 12 c 0.828,0 1.5,-0.672 1.5,-1.5 V 165 h 13.5 c 0.828,0 1.5,-0.672 1.5,-1.5 V 150 h 13.5 c 0.828,0 1.5,0.672 1.5,1.5 v 42 c 0,0.828 0.672,1.5 1.5,1.5 H 615 v 13.5 c 0,0.828 0.672,1.5 1.5,1.5 H 630 v 13.5 c 0,0.828 -0.672,1.5 -1.5,1.5 z m -90,0 h -12 c -0.828,0 -1.5,-0.672 -1.5,-1.5 V 210 h 15 v 15 z m -315,0 H 210 v -30 h 13.5 c 0.828,0 1.5,0.672 1.5,1.5 v 27 c 0,0.828 -0.672,1.5 -1.5,1.5 z m -60,0 H 135 v -13.5 c 0,-0.828 0.672,-1.5 1.5,-1.5 H 165 v 15 z m 30,-15 H 165 v -13.5 c 0,-0.828 -0.672,-1.5 -1.5,-1.5 h -42 c -0.828,0 -1.5,0.672 -1.5,1.5 v 12 c 0,0.828 -0.672,1.5 -1.5,1.5 H 90 v -13.5 c 0,-0.828 0.6716,-1.5 1.5,-1.5 h 12 c 0.828,0 1.5,-0.672 1.5,-1.5 v -12 c 0,-0.828 0.672,-1.5 1.5,-1.5 h 102 c 0.828,0 1.5,0.672 1.5,1.5 V 195 h -13.5 c -0.828,0 -1.5,0.672 -1.5,1.5 v 12 c 0,0.828 -0.672,1.5 -1.5,1.5 z m 480,-15 H 660 v -13.5 c 0,-0.828 0.672,-1.5 1.5,-1.5 h 12 c 0.828,0 1.5,0.672 1.5,1.5 V 195 Z m -45,0 H 615 v -15 h 13.5 c 0.828,0 1.5,0.672 1.5,1.5 V 195 Z m -555,0 h -12 c -0.8284,0 -1.5,-0.672 -1.5,-1.5 v -12 c 0,-0.828 0.6716,-1.5 1.5,-1.5 h 12 c 0.8284,0 1.5,0.672 1.5,1.5 v 12 c 0,0.828 -0.6716,1.5 -1.5,1.5 z m 540,-15 h -12 c -0.828,0 -1.5,-0.672 -1.5,-1.5 v -27 c 0,-0.828 0.672,-1.5 1.5,-1.5 h 12 c 0.828,0 1.5,0.672 1.5,1.5 V 180 Z M 420,178.5 v -42 c 0,-0.828 -0.672,-1.5 -1.5,-1.5 h -42 c -0.828,0 -1.5,0.672 -1.5,1.5 v 42 c 0,0.828 0.672,1.5 1.5,1.5 h 42 c 0.828,0 1.5,-0.672 1.5,-1.5 z M 238.5,180 h -12 c -0.828,0 -1.5,-0.672 -1.5,-1.5 V 165 h 15 v 15 z m 495,-15 h -102 c -0.828,0 -1.5,-0.672 -1.5,-1.5 v -102 c 0,-0.8284 0.672,-1.5 1.5,-1.5 h 102 c 0.828,0 1.5,0.6716 1.5,1.5 v 102 c 0,0.828 -0.672,1.5 -1.5,1.5 z m -180,0 H 540 v -13.5 c 0,-0.828 0.672,-1.5 1.5,-1.5 H 555 v 15 z m -150,0 h -12 c -0.828,0 -1.5,-0.672 -1.5,-1.5 v -12 c 0,-0.828 0.672,-1.5 1.5,-1.5 h 12 c 0.828,0 1.5,0.672 1.5,1.5 v 12 c 0,0.828 -0.672,1.5 -1.5,1.5 z m -150,0 H 240 v -13.5 c 0,-0.828 -0.672,-1.5 -1.5,-1.5 H 225 v -15 h 30 v 30 z m -30,0 h -12 c -0.828,0 -1.5,-0.672 -1.5,-1.5 V 150 h 15 v 15 z m -30,0 h -12 c -0.828,0 -1.5,-0.672 -1.5,-1.5 v -12 c 0,-0.828 0.672,-1.5 1.5,-1.5 H 195 v 13.5 c 0,0.828 -0.672,1.5 -1.5,1.5 z m -30,0 H 61.5 C 60.6716,165 60,164.328 60,163.5 V 61.5 C 60,60.6716 60.6716,60 61.5,60 h 102 c 0.828,0 1.5,0.6716 1.5,1.5 v 102 c 0,0.828 -0.672,1.5 -1.5,1.5 z M 720,148.5 v -72 c 0,-0.8284 -0.672,-1.5 -1.5,-1.5 h -72 c -0.828,0 -1.5,0.6716 -1.5,1.5 v 72 c 0,0.828 0.672,1.5 1.5,1.5 h 72 c 0.828,0 1.5,-0.672 1.5,-1.5 z M 568.5,150 H 555 v -15 h 15 v 15 z m -60,0 H 495 v -13.5 c 0,-0.828 0.672,-1.5 1.5,-1.5 H 510 v 15 z m -300,0 H 195 v -13.5 c 0,-0.828 -0.672,-1.5 -1.5,-1.5 h -12 c -0.828,0 -1.5,-0.672 -1.5,-1.5 v -12 c 0,-0.828 0.672,-1.5 1.5,-1.5 h 27 c 0.828,0 1.5,-0.672 1.5,-1.5 v -12 c 0,-0.828 -0.672,-1.5 -1.5,-1.5 h -27 c -0.828,0 -1.5,-0.672 -1.5,-1.5 v -42 c 0,-0.8284 0.672,-1.5 1.5,-1.5 h 12 c 0.828,0 1.5,0.6716 1.5,1.5 v 27 c 0,0.8284 0.672,1.5 1.5,1.5 H 255 v 15 h -13.5 c -0.828,0 -1.5,0.672 -1.5,1.5 v 12 c 0,0.828 -0.672,1.5 -1.5,1.5 h -12 c -0.828,0 -1.5,0.672 -1.5,1.5 V 135 h -13.5 c -0.828,0 -1.5,0.672 -1.5,1.5 V 150 Z M 150,148.5 v -72 c 0,-0.8284 -0.672,-1.5 -1.5,-1.5 h -72 C 75.6716,75 75,75.6716 75,76.5 v 72 c 0,0.828 0.6716,1.5 1.5,1.5 h 72 c 0.828,0 1.5,-0.672 1.5,-1.5 z M 703.5,135 h -42 c -0.828,0 -1.5,-0.672 -1.5,-1.5 v -42 c 0,-0.8284 0.672,-1.5 1.5,-1.5 h 42 c 0.828,0 1.5,0.6716 1.5,1.5 v 42 c 0,0.828 -0.672,1.5 -1.5,1.5 z m -90,0 H 570 v -15 h 13.5 c 0.828,0 1.5,-0.672 1.5,-1.5 v -42 c 0,-0.8284 0.672,-1.5 1.5,-1.5 H 600 v 28.5 c 0,0.828 0.672,1.5 1.5,1.5 h 12 c 0.828,0 1.5,0.672 1.5,1.5 v 27 c 0,0.828 -0.672,1.5 -1.5,1.5 z m -60,0 h -12 c -0.828,0 -1.5,-0.672 -1.5,-1.5 v -12 c 0,-0.828 -0.672,-1.5 -1.5,-1.5 h -12 c -0.828,0 -1.5,0.672 -1.5,1.5 v 12 c 0,0.828 -0.672,1.5 -1.5,1.5 H 510 v -13.5 c 0,-0.828 -0.672,-1.5 -1.5,-1.5 H 465 v -13.5 c 0,-0.828 0.672,-1.5 1.5,-1.5 h 57 c 0.828,0 1.5,-0.672 1.5,-1.5 v -12 c 0,-0.8284 0.672,-1.5 1.5,-1.5 h 42 c 0.828,0 1.5,0.6716 1.5,1.5 V 120 h -13.5 c -0.828,0 -1.5,0.672 -1.5,1.5 V 135 Z m -285,0 H 255 v -30 h 13.5 c 0.828,0 1.5,0.672 1.5,1.5 V 135 Z m -135,0 h -42 c -0.8284,0 -1.5,-0.672 -1.5,-1.5 v -42 C 90,90.6716 90.6716,90 91.5,90 h 42 c 0.828,0 1.5,0.6716 1.5,1.5 v 42 c 0,0.828 -0.672,1.5 -1.5,1.5 z m 315,-30 H 420 V 91.5 c 0,-0.8284 -0.672,-1.5 -1.5,-1.5 h -12 c -0.828,0 -1.5,0.6716 -1.5,1.5 V 105 h -13.5 c -0.828,0 -1.5,-0.672 -1.5,-1.5 v -27 c 0,-0.8284 0.672,-1.5 1.5,-1.5 h 12 c 0.828,0 1.5,-0.6716 1.5,-1.5 v -12 c 0,-0.8284 0.672,-1.5 1.5,-1.5 h 12 c 0.828,0 1.5,0.6716 1.5,1.5 v 12 c 0,0.8284 0.672,1.5 1.5,1.5 H 450 v 28.5 c 0,0.828 -0.672,1.5 -1.5,1.5 z m -90,0 H 345 V 90 h 15 v 13.5 c 0,0.828 -0.672,1.5 -1.5,1.5 z m -60,0 h -12 c -0.828,0 -1.5,-0.672 -1.5,-1.5 V 90 h 13.5 c 0.828,0 1.5,0.6716 1.5,1.5 V 105 Z m 195,-15 h -27 C 465.672,90 465,89.3284 465,88.5 V 75 h 13.5 c 0.828,0 1.5,-0.6716 1.5,-1.5 v -12 c 0,-0.8284 0.672,-1.5 1.5,-1.5 h 57 c 0.828,0 1.5,0.6716 1.5,1.5 v 12 c 0,0.8284 -0.672,1.5 -1.5,1.5 h -42 c -0.828,0 -1.5,0.6716 -1.5,1.5 v 12 c 0,0.8284 -0.672,1.5 -1.5,1.5 z m -120,0 H 360 V 61.5 c 0,-0.8284 0.672,-1.5 1.5,-1.5 h 12 c 0.828,0 1.5,0.6716 1.5,1.5 v 27 c 0,0.8284 -0.672,1.5 -1.5,1.5 z m -30,0 H 330 V 76.5 c 0,-0.8284 0.672,-1.5 1.5,-1.5 h 12 c 0.828,0 1.5,0.6716 1.5,1.5 V 90 Z m -60,0 H 255 V 76.5 c 0,-0.8284 -0.672,-1.5 -1.5,-1.5 h -12 c -0.828,0 -1.5,-0.6716 -1.5,-1.5 v -12 c 0,-0.8284 0.672,-1.5 1.5,-1.5 h 27 c 0.828,0 1.5,0.6716 1.5,1.5 v 12 c 0,0.8284 0.672,1.5 1.5,1.5 h 12 c 0.828,0 1.5,0.6716 1.5,1.5 V 90 Z m 330,-15 H 600 V 61.5 c 0,-0.8284 0.672,-1.5 1.5,-1.5 h 12 c 0.828,0 1.5,0.6716 1.5,1.5 v 12 c 0,0.8284 -0.672,1.5 -1.5,1.5 z m -150,0 H 450 V 61.5 c 0,-0.8284 0.672,-1.5 1.5,-1.5 h 12 c 0.828,0 1.5,0.6716 1.5,1.5 V 75 Z m -150,0 h -12 c -0.828,0 -1.5,-0.6716 -1.5,-1.5 v -12 c 0,-0.8284 0.672,-1.5 1.5,-1.5 h 12 c 0.828,0 1.5,0.6716 1.5,1.5 v 12 c 0,0.8284 -0.672,1.5 -1.5,1.5 z"
       id="path38" /></g><path
     d="m 138.55,23.6991 c -4.655,-4.6544 -10.042,-5.5231 -15.643,-4.931 -3.591,0.3785 -7.27,1.3541 -10.905,2.3248 -1.408,0.3737 -2.806,0.7474 -4.184,1.0823 -7.8188,1.9073 -15.128,2.6887 -21.1753,-3.4799 0.0049,0.0048 0.0097,0.0097 0.0146,0.0194 l -0.0292,0.0243 v -0.0583 c 0,0 0.0098,0.0097 0.0146,0.0146 C 80.8866,12.1335 81.6777,5.96484 84.0219,0.00488281 H 82.2261 C 79.9256,6.16383 79.2413,12.8227 85.3954,19.8261 h 0.0582 l -0.0291,0.034 c 3.7565,3.839 7.9741,5.2271 12.3859,5.3533 4.7516,0.1359 9.7306,-1.1891 14.6236,-2.4898 1.291,-0.3446 2.577,-0.6843 3.843,-0.9998 7.805,-1.9317 15.095,-2.815 21.074,3.1644 7.421,7.6053 4.465,16.1618 1.339,25.2133 -2.543,7.3529 -5.144,14.9097 -1.795,21.9082 h 1.892 c -3.61,-6.5812 -1.121,-13.7981 1.49,-21.3597 3.155,-9.139 6.422,-18.5836 -1.732,-26.9412 z"
     fill="#ff9900"
     id="path1"
     transform="matrix(2.4148767,0,0,2.4148767,15.87,12.938619)" /><path
     d="m 86.6282,18.6758 -0.6018,0.5872 0.6309,-0.5532 c 0,0 -0.0097,-0.0098 -0.0146,-0.0195 -0.0048,-0.0048 -0.0097,-0.0097 -0.0145,-0.0145 z"
     fill="#0000ff"
     id="path2"
     transform="matrix(2.4148767,0,0,2.4148767,15.87,12.938619)" /><path
     d="m 123.786,53.7949 c -0.529,-0.364 -1.126,-0.6406 -1.762,-0.8153 -7.586,-1.9026 -13.201,-8.775 -13.201,-16.9481 0,-0.7474 0.048,-1.4802 0.136,-2.1985 0.072,-0.563 0.17,-1.1163 0.291,-1.6648 0.971,-4.3001 3.528,-8.0032 7.028,-10.4541 1.703,-1.194 3.625,-2.0919 5.697,-2.616 0.321,-0.0825 0.631,-0.1942 0.932,-0.3301 0.311,-0.1407 0.602,-0.3057 0.879,-0.495 1.514,-1.0435 2.504,-2.7858 2.504,-4.7612 0,-3.1935 -2.587,-5.78035 -5.78,-5.78035 -1.976,0 -3.718,0.99494 -4.761,2.50435 -0.389,0.563 -0.68,1.1988 -0.85,1.8831 -1.072,4.1497 -3.64,7.7023 -7.086,10.0514 -2.8,1.9074 -6.183,3.0285 -9.8279,3.0285 -0.0582,0 -0.1213,0 -0.1795,0 -5.1495,0.0825 -9.4496,3.7371 -10.4591,8.605 -0.1165,0.5485 -0.1844,1.1163 -0.2135,1.6939 -0.0097,0.165 -0.0146,0.33 -0.0146,0.4999 0,5.9842 4.8825,10.8619 10.8619,10.8619 0.8154,0 1.6113,0.0582 2.3977,0.165 3.596,0.495 6.838,2.0772 9.386,4.4117 0.16,0.1505 0.321,0.3009 0.481,0.4562 0.01,0.0097 0.024,0.0243 0.034,0.034 0.238,0.233 0.466,0.4756 0.689,0.7231 0.019,0.0195 0.039,0.0437 0.058,0.0631 0.146,0.1602 0.287,0.3252 0.422,0.4951 1.573,1.9074 2.752,4.1496 3.408,6.6103 0.019,0.0728 0.038,0.1407 0.058,0.2135 0.174,0.6455 0.456,1.2522 0.83,1.7861 1.043,1.5142 2.786,2.5043 4.761,2.5043 3.193,0 5.78,-2.5868 5.78,-5.7803 0,-1.9754 -0.995,-3.7177 -2.504,-4.7612 z"
     fill="#0000ff"
     id="path3"
     transform="matrix(2.4148767,0,0,2.4148767,15.87,12.938619)" /><path
     d="m 114.87,59.8228 c -0.655,-2.4606 -1.83,-4.7029 -3.407,-6.6103 -0.141,-0.165 -0.277,-0.33 -0.422,-0.495 -0.02,-0.0194 -0.039,-0.0437 -0.058,-0.0631 -0.219,-0.2427 -0.452,-0.4854 -0.69,-0.7232 -0.009,-0.0097 -0.024,-0.0242 -0.034,-0.034 -0.16,-0.1601 -0.32,-0.3057 -0.48,-0.4562 -2.548,-2.3345 -5.795,-3.9215 -9.387,-4.4117 -5.3092,-0.5921 -10.9051,1.2279 -16.3846,3.014 -3.8293,1.2473 -7.5713,2.4655 -11.1822,2.9265 v 1.6842 c 3.8779,-0.466 7.8188,-1.7472 11.7015,-3.014 8.9545,-2.9217 17.4193,-5.6784 24.5723,1.4754 5.587,5.5863 5.213,12.0219 3.451,18.8846 h 1.728 c 1.029,-4.1448 1.558,-8.2605 0.592,-12.1772 z"
     fill="#ff9900"
     id="path4"
     transform="matrix(2.4148767,0,0,2.4148767,15.87,12.938619)" /><path
     d="m 123.912,38.1574 c -4.446,-4.4457 -9.464,-5.8338 -14.657,-5.9939 -3.558,-0.1068 -7.193,0.364 -10.7845,0.825 -3.6935,0.4757 -7.4451,0.961 -11.1191,0.8106 -5.0912,-0.2039 -10.0417,-1.6114 -14.5311,-5.9212 v 2.2714 c 4.5185,3.839 9.3719,5.1446 14.3175,5.3436 3.8293,0.1553 7.712,-0.3446 11.5462,-0.8396 3.524,-0.4563 6.969,-0.8979 10.275,-0.83 4.965,0.1068 9.619,1.3735 13.764,5.5183 6.863,6.8627 4.766,15.2931 2.543,24.2184 -0.694,2.8004 -1.398,5.6251 -1.83,8.4352 h 1.694 c 0.422,-2.6208 1.087,-5.3047 1.767,-8.0323 2.232,-8.9885 4.543,-18.2779 -2.99,-25.8103 z"
     fill="#ff9900"
     id="path5"
     transform="matrix(2.4148767,0,0,2.4148767,15.87,12.938619)" /><path
     d="M 0.213623,34.5706 V 25.1599 H 3.50907 l 1.62589,8.2022 H 5.37763 L 7.00351,25.1599 H 10.299 v 9.4107 H 8.57601 v -8.11 H 8.33334 l -1.61132,8.11 H 3.79057 l -1.61133,-8.11 H 1.93658 v 8.11 z"
     fill="#0000ff"
     id="path6"
     transform="matrix(2.4148767,0,0,2.4148767,15.87,12.938619)" /><path
     d="m 15.3028,34.76 c -0.6649,0 -1.2619,-0.1359 -1.7861,-0.4028 -0.529,-0.267 -0.9464,-0.6601 -1.2521,-1.1697 -0.3058,-0.5096 -0.4563,-1.126 -0.4563,-1.8443 v -0.2135 c 0,-0.7183 0.1505,-1.3299 0.4563,-1.8443 0.3057,-0.5096 0.7231,-0.9027 1.2521,-1.1697 0.5291,-0.2669 1.126,-0.4028 1.7861,-0.4028 0.66,0 1.257,0.1359 1.786,0.4028 0.5291,0.267 0.9464,0.6601 1.2522,1.1697 0.3058,0.5096 0.4562,1.126 0.4562,1.8443 v 0.2135 c 0,0.7183 -0.1504,1.3299 -0.4562,1.8443 -0.3058,0.5096 -0.7231,0.9027 -1.2522,1.1697 -0.529,0.2669 -1.126,0.4028 -1.786,0.4028 z m 0,-1.5045 c 0.5193,0 0.9513,-0.1699 1.291,-0.5048 0.3397,-0.3349 0.5096,-0.8202 0.5096,-1.4463 v -0.1359 c 0,-0.6261 -0.1699,-1.1114 -0.5048,-1.4463 -0.3348,-0.3349 -0.7668,-0.5048 -1.2958,-0.5048 -0.529,0 -0.9513,0.1699 -1.291,0.5048 -0.3397,0.3349 -0.5096,0.8202 -0.5096,1.4463 v 0.1359 c 0,0.6261 0.1699,1.1114 0.5096,1.4463 0.3397,0.3349 0.7717,0.5048 1.291,0.5048 z"
     fill="#0000ff"
     id="path7"
     transform="matrix(2.4148767,0,0,2.4148767,15.87,12.938619)" /><path
     d="m 20.355,34.5706 v -9.4107 h 1.6938 v 9.4107 z"
     fill="#0000ff"
     id="path8"
     transform="matrix(2.4148767,0,0,2.4148767,15.87,12.938619)" /><path
     d="m 26.9703,34.76 c -0.6649,0 -1.2473,-0.1407 -1.7569,-0.4222 -0.5047,-0.2815 -0.9027,-0.6795 -1.1842,-1.1988 -0.2815,-0.5145 -0.4223,-1.1211 -0.4223,-1.82 v -0.1602 c 0,-0.6989 0.1408,-1.3055 0.4174,-1.82 0.2767,-0.5145 0.6698,-0.9124 1.1697,-1.1988 0.4999,-0.2815 1.0823,-0.4222 1.7472,-0.4222 0.6649,0 1.2231,0.1456 1.7084,0.4368 0.4853,0.2912 0.8591,0.694 1.1308,1.2085 0.267,0.5144 0.4029,1.1114 0.4029,1.7957 v 0.5776 h -4.8534 c 0.0194,0.4562 0.1893,0.8299 0.5096,1.1163 0.3203,0.2863 0.7183,0.4319 1.1842,0.4319 0.4659,0 0.8251,-0.1019 1.0484,-0.3106 0.2232,-0.2038 0.3931,-0.4368 0.5096,-0.6843 l 1.3832,0.728 c -0.1262,0.2329 -0.3058,0.4853 -0.5436,0.762 -0.2378,0.2717 -0.5533,0.5047 -0.9464,0.6988 -0.3931,0.1942 -0.8979,0.2912 -1.5046,0.2912 z m -1.6259,-4.2904 h 3.1208 c -0.034,-0.3834 -0.1893,-0.694 -0.466,-0.927 -0.2717,-0.2329 -0.6309,-0.3494 -1.0677,-0.3494 -0.4368,0 -0.8202,0.1165 -1.0872,0.3494 -0.2669,0.233 -0.4368,0.5436 -0.4999,0.927 z"
     fill="#0000ff"
     id="path9"
     transform="matrix(2.4148767,0,0,2.4148767,15.87,12.938619)" /><path
     d="m 34.823,34.76 c -0.6455,0 -1.2327,-0.1359 -1.7569,-0.4028 -0.5241,-0.2669 -0.9367,-0.6601 -1.2424,-1.1697 -0.3058,-0.5096 -0.4563,-1.1308 -0.4563,-1.854 v -0.1892 c 0,-0.728 0.1505,-1.3444 0.4563,-1.854 0.3057,-0.5096 0.7183,-0.9028 1.2424,-1.1697 0.5242,-0.2669 1.1114,-0.4028 1.7569,-0.4028 0.6455,0 1.1843,0.1116 1.6405,0.3349 0.4562,0.2232 0.8251,0.529 1.1114,0.9221 0.2815,0.3883 0.4708,0.8299 0.5582,1.325 l -1.6405,0.3494 c -0.034,-0.2669 -0.1165,-0.5096 -0.2427,-0.728 -0.1261,-0.2135 -0.3009,-0.3834 -0.529,-0.5096 -0.2281,-0.1262 -0.5144,-0.1893 -0.8542,-0.1893 -0.3397,0 -0.6455,0.0728 -0.9221,0.2233 -0.2718,0.1456 -0.4902,0.3688 -0.6455,0.66 -0.1553,0.2912 -0.233,0.6455 -0.233,1.0678 v 0.1359 c 0,0.4222 0.0777,0.7765 0.233,1.0677 0.1553,0.2912 0.3737,0.5096 0.6455,0.6601 0.2718,0.1504 0.5824,0.2232 0.9221,0.2232 0.5096,0 0.8979,-0.131 1.1648,-0.3979 0.2621,-0.267 0.432,-0.6116 0.5048,-1.0435 l 1.6404,0.3883 c -0.1164,0.4756 -0.3154,0.9075 -0.5969,1.2958 -0.2815,0.3883 -0.6504,0.6989 -1.1115,0.9222 -0.4562,0.2232 -1.0046,0.3348 -1.6404,0.3348 z"
     fill="#0000ff"
     id="path10"
     transform="matrix(2.4148767,0,0,2.4148767,15.87,12.938619)" /><path
     d="m 42.1127,34.6774 c -0.5193,0 -0.9755,-0.1165 -1.3638,-0.3543 -0.3883,-0.2378 -0.694,-0.5678 -0.9076,-0.9901 -0.2135,-0.4222 -0.3203,-0.9075 -0.3203,-1.4511 v -3.9798 h 1.6938 v 3.8439 c 0,0.4999 0.1214,0.8784 0.3689,1.1308 0.2475,0.2524 0.597,0.3786 1.0532,0.3786 0.5193,0 0.9221,-0.1747 1.2085,-0.5193 0.2863,-0.3446 0.4319,-0.8251 0.4319,-1.4463 v -3.3877 h 1.6938 v 6.6686 H 44.3016 V 33.697 h -0.2427 c -0.1068,0.2233 -0.3106,0.4417 -0.6067,0.6601 -0.296,0.2136 -0.7425,0.3203 -1.3443,0.3203 z"
     fill="#0000ff"
     id="path11"
     transform="matrix(2.4148767,0,0,2.4148767,15.87,12.938619)" /><path
     d="m 47.8545,34.5706 v -9.4107 h 1.6938 v 9.4107 z"
     fill="#0000ff"
     id="path12"
     transform="matrix(2.4148767,0,0,2.4148767,15.87,12.938619)" /><path
     d="m 53.5039,34.76 c -0.4756,0 -0.9027,-0.0825 -1.2764,-0.2475 -0.3786,-0.165 -0.6747,-0.4077 -0.8931,-0.728 -0.2184,-0.3203 -0.33,-0.7037 -0.33,-1.1648 0,-0.4611 0.1116,-0.8396 0.33,-1.1503 0.2184,-0.3106 0.5242,-0.5435 0.9125,-0.6988 0.3882,-0.1554 0.8347,-0.233 1.3395,-0.233 h 1.8297 V 30.159 c 0,-0.3154 -0.097,-0.5727 -0.296,-0.7717 -0.199,-0.199 -0.5096,-0.3009 -0.9416,-0.3009 -0.4319,0 -0.7328,0.0971 -0.9415,0.2912 -0.2087,0.1942 -0.3398,0.4417 -0.4029,0.7475 l -1.5579,-0.5242 c 0.1068,-0.3397 0.2815,-0.6504 0.5193,-0.9367 0.2378,-0.2864 0.5581,-0.5096 0.9561,-0.6843 0.398,-0.1748 0.8833,-0.2621 1.4609,-0.2621 0.8784,0 1.5725,0.2184 2.0821,0.66 0.5096,0.4417 0.7668,1.0775 0.7668,1.9074 v 2.4849 c 0,0.267 0.1262,0.4029 0.3786,0.4029 h 0.5387 v 1.3978 h -1.1308 c -0.3301,0 -0.6067,-0.0826 -0.8202,-0.2427 -0.2136,-0.1602 -0.3204,-0.3786 -0.3204,-0.6455 V 33.668 h -0.2572 c -0.034,0.1068 -0.1165,0.2475 -0.2427,0.4223 -0.1262,0.1747 -0.3203,0.33 -0.5921,0.4659 -0.2669,0.1359 -0.6358,0.2038 -1.1017,0.2038 z m 0.296,-1.3735 c 0.4757,0 0.864,-0.131 1.1649,-0.3979 0.3009,-0.2621 0.4513,-0.6164 0.4513,-1.0532 v -0.1359 h -1.7084 c -0.3154,0 -0.5581,0.0679 -0.7377,0.2038 -0.1796,0.1359 -0.2669,0.3203 -0.2669,0.563 0,0.2427 0.0922,0.4417 0.2815,0.5921 0.1893,0.1505 0.4611,0.2281 0.8202,0.2281 z"
     fill="#0000ff"
     id="path13"
     transform="matrix(2.4148767,0,0,2.4148767,15.87,12.938619)" /><path
     d="m 59.2017,34.5707 v -6.6685 h 1.6695 v 0.7522 h 0.2427 c 0.0971,-0.2669 0.2621,-0.4659 0.4902,-0.5921 0.2281,-0.1262 0.495,-0.1893 0.8008,-0.1893 h 0.8057 v 1.5046 h -0.8348 c -0.432,0 -0.7863,0.1165 -1.0629,0.3446 -0.2767,0.2281 -0.4174,0.5824 -0.4174,1.0532 v 3.7905 h -1.6938 z"
     fill="#0000ff"
     id="path14"
     transform="matrix(2.4148767,0,0,2.4148767,15.87,12.938619)" /><path
     d="m 3.873,49.5483 c -1.18422,0 -2.12578,-0.3252 -2.82467,-0.9755 C 0.349444,47.9224 0,46.9906 0,45.7821 V 43.5253 C 0,42.3168 0.349444,41.3849 1.04833,40.7346 1.74722,40.0842 2.68878,39.759 3.873,39.759 c 1.18423,0 2.12579,0.3252 2.82467,0.9756 0.69889,0.6503 1.04834,1.5822 1.04834,2.7907 v 2.2568 c 0,1.2085 -0.34945,2.1403 -1.04834,2.7907 -0.69888,0.6503 -1.64044,0.9755 -2.82467,0.9755 z m 0,-1.587 c 0.66492,0 1.17938,-0.1942 1.54823,-0.5776 0.36886,-0.3834 0.55329,-0.9027 0.55329,-1.5482 V 43.467 c 0,-0.6455 -0.18443,-1.1599 -0.55329,-1.5482 C 5.05238,41.5354 4.53792,41.3412 3.873,41.3412 c -0.66491,0 -1.16966,0.1942 -1.53852,0.5776 -0.37371,0.3834 -0.55814,0.9027 -0.55814,1.5482 v 2.3685 c 0,0.6455 0.18443,1.1599 0.55814,1.5482 0.37371,0.3834 0.88332,0.5776 1.53852,0.5776 z m 0.61638,3.8196 C 4.04772,51.7809 3.69343,51.645 3.42164,51.3732 3.14985,51.1014 3.0091,50.7325 3.0091,50.2763 v -0.9124 h 1.72295 v 0.6455 c 0,0.2669 0.12619,0.4028 0.37857,0.4028 h 0.7911 v 1.3735 H 4.48938 Z"
     fill="#0000ff"
     id="path15"
     transform="matrix(2.4148767,0,0,2.4148767,15.87,12.938619)" /><path
     d="m 11.9005,49.4706 c -0.5193,0 -0.9755,-0.1164 -1.3638,-0.3543 C 10.1485,48.8785 9.84271,48.5485 9.62916,48.1263 9.41561,47.704 9.30884,47.2187 9.30884,46.6751 v -3.9798 h 1.69386 v 3.8439 c 0,0.4999 0.1213,0.8785 0.3688,1.1308 0.2476,0.2524 0.597,0.3786 1.0532,0.3786 0.5193,0 0.9222,-0.1747 1.2085,-0.5193 0.2864,-0.3446 0.432,-0.8251 0.432,-1.4463 v -3.3877 h 1.6938 v 6.6686 h -1.6696 v -0.8736 h -0.2426 c -0.1068,0.2232 -0.3107,0.4416 -0.6067,0.66 -0.2961,0.2136 -0.7426,0.3203 -1.3444,0.3203 z"
     fill="#0000ff"
     id="path16"
     transform="matrix(2.4148767,0,0,2.4148767,15.87,12.938619)" /><path
     d="m 19.7143,49.5484 c -0.4756,0 -0.9027,-0.0825 -1.2764,-0.2476 -0.3786,-0.165 -0.6746,-0.4076 -0.893,-0.728 -0.2184,-0.3203 -0.3301,-0.7037 -0.3301,-1.1648 0,-0.461 0.1117,-0.8396 0.3301,-1.1502 0.2184,-0.3106 0.5241,-0.5436 0.9124,-0.6989 0.3883,-0.1553 0.8348,-0.233 1.3395,-0.233 h 1.8298 v -0.3785 c 0,-0.3155 -0.0971,-0.5727 -0.2961,-0.7717 -0.199,-0.199 -0.5096,-0.3009 -0.9415,-0.3009 -0.432,0 -0.7329,0.097 -0.9416,0.2912 -0.2087,0.1941 -0.3397,0.4416 -0.4028,0.7474 l -1.558,-0.5242 c 0.1068,-0.3397 0.2815,-0.6503 0.5193,-0.9367 0.2379,-0.2863 0.5582,-0.5096 0.9562,-0.6843 0.3979,-0.1747 0.8833,-0.2621 1.4608,-0.2621 0.8785,0 1.5725,0.2184 2.0821,0.6601 0.5096,0.4416 0.7669,1.0774 0.7669,1.9073 v 2.485 c 0,0.2669 0.1262,0.4028 0.3785,0.4028 h 0.5388 v 1.3978 h -1.1309 c -0.33,0 -0.6067,-0.0825 -0.8202,-0.2427 -0.2136,-0.1601 -0.3203,-0.3785 -0.3203,-0.6455 v -0.0145 h -0.2573 c -0.0339,0.1067 -0.1164,0.2475 -0.2426,0.4222 -0.1262,0.1747 -0.3203,0.33 -0.5921,0.4659 -0.267,0.1359 -0.6358,0.2039 -1.1018,0.2039 z m 0.2912,-1.3687 c 0.4757,0 0.8639,-0.131 1.1649,-0.398 0.3009,-0.262 0.4513,-0.6163 0.4513,-1.0532 v -0.1358 h -1.7084 c -0.3154,0 -0.5581,0.0679 -0.7377,0.2038 -0.1796,0.1359 -0.2669,0.3203 -0.2669,0.563 0,0.2427 0.0922,0.4416 0.2815,0.5921 0.1893,0.1505 0.461,0.2281 0.8202,0.2281 z"
     fill="#0000ff"
     id="path17"
     transform="matrix(2.4148767,0,0,2.4148767,15.87,12.938619)" /><path
     d="m 25.4124,49.3637 v -6.6685 h 1.6695 v 0.8736 h 0.2427 c 0.1068,-0.233 0.3106,-0.4563 0.6067,-0.665 0.296,-0.2086 0.7425,-0.3154 1.3443,-0.3154 0.5194,0 0.9756,0.1165 1.3639,0.3543 0.3882,0.2378 0.694,0.563 0.9075,0.9804 0.2136,0.4174 0.3204,0.9027 0.3204,1.4608 v 3.9798 h -1.6939 v -3.8439 c 0,-0.4999 -0.1213,-0.8784 -0.3688,-1.1308 -0.2476,-0.2524 -0.597,-0.3786 -1.0532,-0.3786 -0.5193,0 -0.9222,0.1747 -1.2085,0.5193 -0.2864,0.3446 -0.432,0.8251 -0.432,1.4463 v 3.3877 h -1.6938 z"
     fill="#0000ff"
     id="path18"
     transform="matrix(2.4148767,0,0,2.4148767,15.87,12.938619)" /><path
     d="m 36.0607,49.364 c -0.4416,0 -0.7959,-0.1359 -1.0677,-0.4077 -0.2718,-0.2718 -0.4125,-0.6406 -0.4125,-1.0969 v -3.7662 h -1.6696 v -1.3978 h 1.6696 V 40.623 h 1.6938 v 2.0724 h 1.8297 v 1.3978 h -1.8297 v 3.4702 c 0,0.2669 0.1262,0.4028 0.3785,0.4028 h 1.2911 v 1.3978 z"
     fill="#0000ff"
     id="path19"
     transform="matrix(2.4148767,0,0,2.4148767,15.87,12.938619)" /><path
     d="m 42.1808,49.4706 c -0.5193,0 -0.9755,-0.1164 -1.3638,-0.3543 -0.3883,-0.2378 -0.694,-0.5678 -0.9076,-0.99 -0.2135,-0.4223 -0.3203,-0.9076 -0.3203,-1.4512 v -3.9798 h 1.6938 v 3.8439 c 0,0.4999 0.1214,0.8785 0.3689,1.1308 0.2475,0.2524 0.597,0.3786 1.0532,0.3786 0.5193,0 0.9221,-0.1747 1.2085,-0.5193 0.2863,-0.3446 0.4319,-0.8251 0.4319,-1.4463 v -3.3877 h 1.6939 v 6.6686 H 44.3697 V 48.4903 H 44.127 c -0.1067,0.2232 -0.3106,0.4416 -0.6066,0.66 -0.2961,0.2136 -0.7426,0.3203 -1.3444,0.3203 z"
     fill="#0000ff"
     id="path20"
     transform="matrix(2.4148767,0,0,2.4148767,15.87,12.938619)" /><path
     d="m 47.9224,49.3637 v -6.6685 h 1.6695 v 0.728 h 0.2427 c 0.1165,-0.2233 0.3106,-0.4174 0.5776,-0.5873 0.2669,-0.165 0.6212,-0.2475 1.0628,-0.2475 0.4757,0 0.8542,0.0922 1.1406,0.2766 0.2863,0.1845 0.5047,0.4223 0.66,0.7183 h 0.2427 c 0.1505,-0.2863 0.3689,-0.5241 0.6455,-0.7134 0.2767,-0.1893 0.6746,-0.2815 1.1842,-0.2815 0.4126,0 0.7863,0.0873 1.1212,0.2621 0.3349,0.1747 0.6067,0.4416 0.8056,0.7911 0.199,0.3494 0.301,0.8008 0.301,1.3395 v 4.3826 h -1.6939 v -4.2613 c 0,-0.3688 -0.0922,-0.6455 -0.2815,-0.825 -0.1893,-0.1796 -0.4513,-0.2767 -0.7911,-0.2767 -0.3834,0 -0.6843,0.1213 -0.893,0.3689 -0.2087,0.2475 -0.3155,0.5969 -0.3155,1.058 v 3.941 H 51.907 v -4.2613 c 0,-0.3689 -0.0922,-0.6455 -0.2815,-0.8251 -0.1893,-0.1844 -0.4514,-0.2766 -0.7911,-0.2766 -0.3834,0 -0.6843,0.1213 -0.893,0.3688 -0.2087,0.2475 -0.3155,0.597 -0.3155,1.0581 v 3.9409 h -1.6938 z"
     fill="#0000ff"
     id="path21"
     transform="matrix(2.4148767,0,0,2.4148767,15.87,12.938619)" /><path
     d="M 0.213623,64.1522 V 54.7415 H 3.58673 l 1.86855,8.2022 h 0.24267 v -8.2022 h 1.74722 v 9.4107 H 4.07207 L 2.20351,55.9499 H 1.96084 v 8.2023 z"
     fill="#0000ff"
     id="path22"
     transform="matrix(2.4148767,0,0,2.4148767,15.87,12.938619)" /><path
     d="m 11.3764,64.3413 c -0.4756,0 -0.9027,-0.0825 -1.2764,-0.2475 -0.37856,-0.165 -0.67461,-0.4077 -0.89302,-0.728 -0.2184,-0.3203 -0.33003,-0.7037 -0.33003,-1.1648 0,-0.4611 0.11163,-0.8396 0.33003,-1.1503 0.21841,-0.3106 0.52417,-0.5435 0.91242,-0.6988 0.3883,-0.1554 0.8348,-0.233 1.3396,-0.233 h 1.8297 v -0.3786 c 0,-0.3154 -0.0971,-0.5727 -0.2961,-0.7717 -0.199,-0.199 -0.5096,-0.3009 -0.9415,-0.3009 -0.432,0 -0.7329,0.0971 -0.9416,0.2912 -0.2087,0.1942 -0.3397,0.4417 -0.4028,0.7475 L 9.14874,59.1822 c 0.10678,-0.3397 0.2815,-0.6504 0.51931,-0.9367 0.23782,-0.2864 0.55815,-0.5096 0.95615,-0.6843 0.3979,-0.1748 0.8833,-0.2621 1.4608,-0.2621 0.8785,0 1.5725,0.2184 2.0821,0.66 0.5097,0.4417 0.7669,1.0775 0.7669,1.9074 v 2.485 c 0,0.2669 0.1262,0.4028 0.3785,0.4028 h 0.5388 v 1.3978 h -1.1309 c -0.33,0 -0.6066,-0.0826 -0.8202,-0.2427 -0.2135,-0.1602 -0.3203,-0.3786 -0.3203,-0.6455 v -0.0146 h -0.2572 c -0.034,0.1068 -0.1165,0.2476 -0.2427,0.4223 -0.1262,0.1747 -0.3203,0.33 -0.5921,0.4659 -0.267,0.1359 -0.6358,0.2038 -1.1017,0.2038 z m 0.2961,-1.3735 c 0.4756,0 0.8639,-0.131 1.1648,-0.3979 0.3009,-0.2621 0.4514,-0.6164 0.4514,-1.0532 v -0.1359 h -1.7084 c -0.3155,0 -0.5581,0.0679 -0.7377,0.2038 -0.1796,0.1359 -0.267,0.3203 -0.267,0.563 0,0.2427 0.0923,0.4417 0.2815,0.5921 0.1893,0.1505 0.4611,0.2281 0.8203,0.2281 z"
     fill="#0000ff"
     id="path23"
     transform="matrix(2.4148767,0,0,2.4148767,15.87,12.938619)" /><path
     d="m 17.1033,64.1523 v -6.6686 h 1.6695 v 0.8736 h 0.2427 c 0.1068,-0.2329 0.3106,-0.4562 0.6067,-0.6649 0.296,-0.2087 0.7425,-0.3154 1.3444,-0.3154 0.5193,0 0.9755,0.1164 1.3638,0.3542 0.3882,0.2379 0.694,0.563 0.9076,0.9804 0.2135,0.4174 0.3203,0.9028 0.3203,1.4609 v 3.9798 h -1.6939 v -3.8439 c 0,-0.4999 -0.1213,-0.8785 -0.3688,-1.1308 -0.2475,-0.2524 -0.597,-0.3786 -1.0532,-0.3786 -0.5193,0 -0.9221,0.1747 -1.2085,0.5193 -0.2863,0.3446 -0.4319,0.8251 -0.4319,1.4463 v 3.3877 h -1.6939 z"
     fill="#0000ff"
     id="path24"
     transform="matrix(2.4148767,0,0,2.4148767,15.87,12.938619)" /><path
     d="m 28.5865,64.3413 c -0.6649,0 -1.2619,-0.1359 -1.7861,-0.4028 -0.529,-0.267 -0.9464,-0.6601 -1.2521,-1.1697 -0.3058,-0.5096 -0.4563,-1.126 -0.4563,-1.8443 V 60.711 c 0,-0.7183 0.1505,-1.3299 0.4563,-1.8443 0.3057,-0.5096 0.7231,-0.9027 1.2521,-1.1697 0.5291,-0.2669 1.126,-0.4028 1.7861,-0.4028 0.66,0 1.257,0.1359 1.786,0.4028 0.529,0.267 0.9464,0.6601 1.2522,1.1697 0.3058,0.5096 0.4562,1.126 0.4562,1.8443 v 0.2135 c 0,0.7183 -0.1504,1.3299 -0.4562,1.8443 -0.3058,0.5096 -0.7232,0.9027 -1.2522,1.1697 -0.529,0.2669 -1.126,0.4028 -1.786,0.4028 z m 0,-1.5045 c 0.5193,0 0.9512,-0.1699 1.291,-0.5048 0.3397,-0.3349 0.5096,-0.8202 0.5096,-1.4463 v -0.1359 c 0,-0.6261 -0.1699,-1.1114 -0.5048,-1.4463 -0.3349,-0.3349 -0.7668,-0.5048 -1.2958,-0.5048 -0.529,0 -0.9513,0.1699 -1.291,0.5048 -0.3398,0.3349 -0.5096,0.8202 -0.5096,1.4463 v 0.1359 c 0,0.6261 0.1698,1.1114 0.5096,1.4463 0.3397,0.3349 0.7717,0.5048 1.291,0.5048 z"
     fill="#0000ff"
     id="path25"
     transform="matrix(2.4148767,0,0,2.4148767,15.87,12.938619)" /><path
     d="m 33.668,66.8408 v -9.3573 h 1.6695 v 0.8056 h 0.2427 c 0.1505,-0.2621 0.3883,-0.4902 0.7134,-0.694 0.3252,-0.2038 0.7863,-0.3009 1.3833,-0.3009 0.5387,0 1.0337,0.131 1.4948,0.398 0.4562,0.262 0.8251,0.6503 1.1017,1.1648 0.2767,0.5096 0.4174,1.1308 0.4174,1.854 v 0.2135 c 0,0.728 -0.1407,1.3444 -0.4174,1.854 -0.2766,0.5096 -0.6455,0.8979 -1.1017,1.1648 -0.4562,0.2621 -0.9561,0.398 -1.4948,0.398 -0.4029,0 -0.7426,-0.0485 -1.0144,-0.1407 -0.2718,-0.0923 -0.495,-0.2136 -0.6601,-0.364 -0.165,-0.1456 -0.296,-0.2961 -0.3979,-0.4514 h -0.2427 v 3.4556 z m 3.4993,-3.9798 c 0.529,0 0.9658,-0.1698 1.3104,-0.5047 0.3446,-0.3349 0.5193,-0.8251 0.5193,-1.4706 v -0.1359 c 0,-0.6455 -0.1747,-1.1357 -0.5242,-1.4706 -0.3494,-0.3349 -0.7862,-0.5047 -1.3055,-0.5047 -0.5194,0 -0.9562,0.1698 -1.3056,0.5047 -0.3494,0.3349 -0.5242,0.8251 -0.5242,1.4706 v 0.1359 c 0,0.6455 0.1748,1.1357 0.5242,1.4706 0.3494,0.3349 0.7862,0.5047 1.3056,0.5047 z"
     fill="#0000ff"
     id="path26"
     transform="matrix(2.4148767,0,0,2.4148767,15.87,12.938619)" /><path
     d="m 42.2729,64.1522 v -9.4107 h 1.6939 v 3.5623 h 0.2426 c 0.0729,-0.1407 0.1845,-0.2863 0.3349,-0.4319 0.1505,-0.1456 0.3543,-0.2621 0.6116,-0.3543 0.2572,-0.0922 0.5824,-0.1408 0.9755,-0.1408 0.5193,0 0.9755,0.1165 1.3638,0.3543 0.3883,0.2379 0.694,0.563 0.9076,0.9804 0.2135,0.4174 0.3203,0.9028 0.3203,1.4609 v 3.9798 h -1.6938 v -3.8439 c 0,-0.4999 -0.1214,-0.8785 -0.3689,-1.1308 -0.2475,-0.2524 -0.597,-0.3786 -1.0532,-0.3786 -0.5193,0 -0.9221,0.1747 -1.2085,0.5193 -0.2863,0.3446 -0.4319,0.8251 -0.4319,1.4463 v 3.3877 z"
     fill="#0000ff"
     id="path27"
     transform="matrix(2.4148767,0,0,2.4148767,15.87,12.938619)" /><path
     d="m 53.7562,64.3413 c -0.665,0 -1.2619,-0.1359 -1.7861,-0.4028 -0.529,-0.267 -0.9464,-0.6601 -1.2522,-1.1697 -0.3057,-0.5096 -0.4562,-1.126 -0.4562,-1.8443 V 60.711 c 0,-0.7183 0.1505,-1.3299 0.4562,-1.8443 0.3058,-0.5096 0.7232,-0.9027 1.2522,-1.1697 0.529,-0.2669 1.126,-0.4028 1.7861,-0.4028 0.66,0 1.257,0.1359 1.786,0.4028 0.529,0.267 0.9464,0.6601 1.2522,1.1697 0.3057,0.5096 0.4562,1.126 0.4562,1.8443 v 0.2135 c 0,0.7183 -0.1505,1.3299 -0.4562,1.8443 -0.3058,0.5096 -0.7232,0.9027 -1.2522,1.1697 -0.529,0.2669 -1.126,0.4028 -1.786,0.4028 z m 0,-1.5045 c 0.5193,0 0.9512,-0.1699 1.291,-0.5048 0.3397,-0.3349 0.5096,-0.8202 0.5096,-1.4463 v -0.1359 c 0,-0.6261 -0.1699,-1.1114 -0.5048,-1.4463 -0.3349,-0.3349 -0.7668,-0.5048 -1.2958,-0.5048 -0.5291,0 -0.9513,0.1699 -1.291,0.5048 -0.3398,0.3349 -0.5096,0.8202 -0.5096,1.4463 v 0.1359 c 0,0.6261 0.1698,1.1114 0.5096,1.4463 0.3397,0.3349 0.7716,0.5048 1.291,0.5048 z"
     fill="#0000ff"
     id="path28"
     transform="matrix(2.4148767,0,0,2.4148767,15.87,12.938619)" /><path
     d="m 61.1818,64.1521 c -0.4416,0 -0.7959,-0.1359 -1.0677,-0.4077 -0.2718,-0.2718 -0.4126,-0.6406 -0.4126,-1.0969 V 58.8813 H 58.032 v -1.3978 h 1.6695 v -2.0724 h 1.6939 v 2.0724 h 1.8297 v 1.3978 h -1.8297 v 3.4702 c 0,0.2669 0.1262,0.4028 0.3785,0.4028 h 1.291 v 1.3978 z"
     fill="#0000ff"
     id="path29"
     transform="matrix(2.4148767,0,0,2.4148767,15.87,12.938619)" /><path
     d="m 67.7144,64.3413 c -0.6649,0 -1.2619,-0.1359 -1.786,-0.4028 -0.5291,-0.267 -0.9465,-0.6601 -1.2522,-1.1697 C 64.3704,62.2592 64.22,61.6428 64.22,60.9245 V 60.711 c 0,-0.7183 0.1504,-1.3299 0.4562,-1.8443 0.3057,-0.5096 0.7231,-0.9027 1.2522,-1.1697 0.529,-0.2669 1.1259,-0.4028 1.786,-0.4028 0.6601,0 1.257,0.1359 1.7861,0.4028 0.529,0.267 0.9464,0.6601 1.2521,1.1697 0.3058,0.5096 0.4562,1.126 0.4562,1.8443 v 0.2135 c 0,0.7183 -0.1504,1.3299 -0.4562,1.8443 -0.3057,0.5096 -0.7231,0.9027 -1.2521,1.1697 -0.5291,0.2669 -1.126,0.4028 -1.7861,0.4028 z m 0,-1.5045 c 0.5193,0 0.9513,-0.1699 1.291,-0.5048 0.3397,-0.3349 0.5096,-0.8202 0.5096,-1.4463 v -0.1359 c 0,-0.6261 -0.1699,-1.1114 -0.5047,-1.4463 -0.3349,-0.3349 -0.7669,-0.5048 -1.2959,-0.5048 -0.529,0 -0.9513,0.1699 -1.291,0.5048 -0.3397,0.3349 -0.5096,0.8202 -0.5096,1.4463 v 0.1359 c 0,0.6261 0.1699,1.1114 0.5096,1.4463 0.3397,0.3349 0.7717,0.5048 1.291,0.5048 z"
     fill="#0000ff"
     id="path30"
     transform="matrix(2.4148767,0,0,2.4148767,15.87,12.938619)" /><path
     d="m 72.7959,64.1523 v -6.6686 h 1.6696 v 0.8736 h 0.2426 c 0.1068,-0.2329 0.3106,-0.4562 0.6067,-0.6649 0.2961,-0.2087 0.7426,-0.3154 1.3444,-0.3154 0.5193,0 0.9755,0.1164 1.3638,0.3542 0.3883,0.2379 0.694,0.563 0.9076,0.9804 0.2135,0.4174 0.3203,0.9028 0.3203,1.4609 v 3.9798 h -1.6938 v -3.8439 c 0,-0.4999 -0.1214,-0.8785 -0.3689,-1.1308 -0.2475,-0.2524 -0.597,-0.3786 -1.0532,-0.3786 -0.5193,0 -0.9221,0.1747 -1.2085,0.5193 -0.2863,0.3446 -0.4319,0.8251 -0.4319,1.4463 v 3.3877 h -1.6939 z"
     fill="#0000ff"
     id="path31"
     transform="matrix(2.4148767,0,0,2.4148767,15.87,12.938619)" /><path
     d="m 81.9253,56.7023 c -0.3058,0 -0.563,-0.0971 -0.7717,-0.2961 -0.2087,-0.199 -0.3155,-0.4562 -0.3155,-0.7814 0,-0.3252 0.1068,-0.5824 0.3155,-0.7814 0.2087,-0.199 0.4708,-0.296 0.7717,-0.296 0.3009,0 0.5727,0.097 0.7814,0.296 0.2087,0.199 0.3106,0.4562 0.3106,0.7814 0,0.3252 -0.1019,0.5824 -0.3106,0.7814 -0.2039,0.199 -0.4659,0.2961 -0.7814,0.2961 z m -0.8445,7.4499 v -6.6685 h 1.6938 v 6.6685 z"
     fill="#0000ff"
     id="path32"
     transform="matrix(2.4148767,0,0,2.4148767,15.87,12.938619)" /><path
     d="m 87.7881,64.3413 c -0.6455,0 -1.2327,-0.1359 -1.7569,-0.4028 -0.5242,-0.2669 -0.9367,-0.6601 -1.2425,-1.1697 -0.3057,-0.5096 -0.4562,-1.1308 -0.4562,-1.854 v -0.1892 c 0,-0.728 0.1505,-1.3444 0.4562,-1.854 0.3058,-0.5096 0.7183,-0.9028 1.2425,-1.1697 0.5242,-0.2669 1.1114,-0.4028 1.7569,-0.4028 0.6455,0 1.1843,0.1116 1.6405,0.3349 0.4562,0.2232 0.8251,0.529 1.1114,0.9221 0.2864,0.3931 0.4708,0.8299 0.5581,1.325 l -1.6404,0.3494 c -0.034,-0.2669 -0.1165,-0.5096 -0.2427,-0.728 -0.1262,-0.2135 -0.3009,-0.3834 -0.529,-0.5096 -0.2281,-0.1262 -0.5144,-0.1893 -0.8542,-0.1893 -0.3397,0 -0.6503,0.0728 -0.9221,0.2233 -0.2718,0.1456 -0.4902,0.3688 -0.6455,0.66 -0.1553,0.2912 -0.233,0.6455 -0.233,1.0678 v 0.1359 c 0,0.4222 0.0777,0.7765 0.233,1.0677 0.1553,0.2912 0.3737,0.5096 0.6455,0.6601 0.2718,0.1504 0.5824,0.2232 0.9221,0.2232 0.5096,0 0.8979,-0.131 1.1648,-0.3979 0.2621,-0.267 0.432,-0.6116 0.5048,-1.0435 l 1.6404,0.3883 c -0.1165,0.4756 -0.3154,0.9075 -0.5969,1.2958 -0.2815,0.3883 -0.6504,0.6989 -1.1115,0.9222 -0.4562,0.2232 -1.0046,0.3348 -1.6404,0.3348 z"
     fill="#0000ff"
     id="path33"
     transform="matrix(2.4148767,0,0,2.4148767,15.87,12.938619)" /><path
     d="m 95.3059,64.3414 c -0.8688,0 -1.5822,-0.1893 -2.1355,-0.563 -0.5581,-0.3786 -0.893,-0.9125 -1.0095,-1.6114 l 1.5579,-0.4028 c 0.0631,0.3155 0.1699,0.5582 0.3155,0.7377 0.1505,0.1796 0.33,0.3058 0.5533,0.3835 0.2184,0.0776 0.4611,0.1164 0.7183,0.1164 0.3931,0 0.6843,-0.0679 0.8736,-0.2087 0.1893,-0.1407 0.2815,-0.3106 0.2815,-0.5193 0,-0.2087 -0.0922,-0.364 -0.2669,-0.4756 -0.1796,-0.1116 -0.466,-0.2038 -0.8591,-0.2767 L 94.9564,61.4536 C 94.4905,61.3662 94.0634,61.2401 93.68,61.0847 93.2966,60.9294 92.986,60.711 92.753,60.4344 92.52,60.1577 92.4036,59.7986 92.4036,59.3569 c 0,-0.6649 0.2426,-1.1696 0.728,-1.5239 0.4853,-0.3543 1.1211,-0.529 1.9074,-0.529 0.7425,0 1.3637,0.165 1.8539,0.4999 0.4902,0.3348 0.8154,0.7668 0.9707,1.3055 l -1.5725,0.4854 c -0.0728,-0.3398 -0.2184,-0.5825 -0.4368,-0.7281 -0.2184,-0.1456 -0.4902,-0.2135 -0.8153,-0.2135 -0.3252,0 -0.5679,0.0582 -0.7378,0.1699 -0.1698,0.1116 -0.2572,0.2669 -0.2572,0.4659 0,0.2135 0.0874,0.3737 0.2669,0.4756 0.1796,0.1019 0.4223,0.1796 0.7281,0.233 l 0.3785,0.0679 c 0.4999,0.0874 0.9561,0.2087 1.3638,0.3543 0.4077,0.1456 0.7329,0.3592 0.9658,0.631 0.2379,0.2718 0.3543,0.6455 0.3543,1.1114 0,0.6989 -0.2523,1.2376 -0.7619,1.621 -0.5048,0.3834 -1.1843,0.5727 -2.0385,0.5727 z"
     fill="#0000ff"
     id="path34"
     transform="matrix(2.4148767,0,0,2.4148767,15.87,12.938619)" /></svg>
