<?xml version="1.0" encoding="UTF-8" standalone="no"?>
<!-- Created with Inkscape (http://www.inkscape.org/) -->

<svg
   width="136.65901mm"
   height="136.659mm"
   viewBox="0 0 136.65901 136.659"
   version="1.1"
   id="svg1"
   xml:space="preserve"
   inkscape:version="1.4.2 (ebf0e940d0, 2025-05-08)"
   sodipodi:docname="logo.svg"
   inkscape:export-filename="logo.png"
   inkscape:export-xdpi="96"
   inkscape:export-ydpi="96"
   xmlns:inkscape="http://www.inkscape.org/namespaces/inkscape"
   xmlns:sodipodi="http://sodipodi.sourceforge.net/DTD/sodipodi-0.dtd"
   xmlns="http://www.w3.org/2000/svg"
   xmlns:svg="http://www.w3.org/2000/svg"><sodipodi:namedview
     id="namedview1"
     pagecolor="#ffffff"
     bordercolor="#666666"
     borderopacity="1.0"
     inkscape:showpageshadow="2"
     inkscape:pageopacity="0.0"
     inkscape:pagecheckerboard="0"
     inkscape:deskcolor="#d1d1d1"
     inkscape:document-units="mm"
     inkscape:zoom="1.450127"
     inkscape:cx="258.25325"
     inkscape:cy="400.99937"
     inkscape:window-width="1702"
     inkscape:window-height="916"
     inkscape:window-x="0"
     inkscape:window-y="0"
     inkscape:window-maximized="0"
     inkscape:current-layer="svg1" /><defs
     id="defs1" /><g
     inkscape:label="Layer 1"
     inkscape:groupmode="layer"
     id="layer1"
     transform="translate(28.12219,19.250073)" /><rect
     x="0"
     y="0"
     width="2254.9563"
     height="795"
     style="fill:#ffffff;stroke:none"
     id="rect38"
     transform="scale(0.06060384,0.17189811)" /><path
     d="m 86.6282,18.6758 -0.6018,0.5872 0.6309,-0.5532 c 0,0 -0.0097,-0.0098 -0.0146,-0.0195 -0.0048,-0.0048 -0.0097,-0.0097 -0.0145,-0.0145 z"
     fill="#0000ff"
     id="path2"
     transform="matrix(2.4148767,0,0,2.4148767,-156.39987,18.218331)" /><path
     d="m 123.786,53.7949 c -0.529,-0.364 -1.126,-0.6406 -1.762,-0.8153 -7.586,-1.9026 -13.201,-8.775 -13.201,-16.9481 0,-0.7474 0.048,-1.4802 0.136,-2.1985 0.072,-0.563 0.17,-1.1163 0.291,-1.6648 0.971,-4.3001 3.528,-8.0032 7.028,-10.4541 1.703,-1.194 3.625,-2.0919 5.697,-2.616 0.321,-0.0825 0.631,-0.1942 0.932,-0.3301 0.311,-0.1407 0.602,-0.3057 0.879,-0.495 1.514,-1.0435 2.504,-2.7858 2.504,-4.7612 0,-3.1935 -2.587,-5.78035 -5.78,-5.78035 -1.976,0 -3.718,0.99494 -4.761,2.50435 -0.389,0.563 -0.68,1.1988 -0.85,1.8831 -1.072,4.1497 -3.64,7.7023 -7.086,10.0514 -2.8,1.9074 -6.183,3.0285 -9.8279,3.0285 -0.0582,0 -0.1213,0 -0.1795,0 -5.1495,0.0825 -9.4496,3.7371 -10.4591,8.605 -0.1165,0.5485 -0.1844,1.1163 -0.2135,1.6939 -0.0097,0.165 -0.0146,0.33 -0.0146,0.4999 0,5.9842 4.8825,10.8619 10.8619,10.8619 0.8154,0 1.6113,0.0582 2.3977,0.165 3.596,0.495 6.838,2.0772 9.386,4.4117 0.16,0.1505 0.321,0.3009 0.481,0.4562 0.01,0.0097 0.024,0.0243 0.034,0.034 0.238,0.233 0.466,0.4756 0.689,0.7231 0.019,0.0195 0.039,0.0437 0.058,0.0631 0.146,0.1602 0.287,0.3252 0.422,0.4951 1.573,1.9074 2.752,4.1496 3.408,6.6103 0.019,0.0728 0.038,0.1407 0.058,0.2135 0.174,0.6455 0.456,1.2522 0.83,1.7861 1.043,1.5142 2.786,2.5043 4.761,2.5043 3.193,0 5.78,-2.5868 5.78,-5.7803 0,-1.9754 -0.995,-3.7177 -2.504,-4.7612 z"
     fill="#0000ff"
     id="path3"
     transform="matrix(2.4148767,0,0,2.4148767,-189.34798,-18.670479)" /></svg>
